<?xml version="1.0" standalone="no"?>
<!DOCTYPE svg PUBLIC "-//W3C//DTD SVG 1.1//EN" "http://www.w3.org/Graphics/SVG/1.1/DTD/svg11.dtd" >
<svg xmlns="http://www.w3.org/2000/svg">
<metadata>
<json>
<![CDATA[
{
	"fontFamily": "Robo",
	"majorVersion": 1,
	"minorVersion": 0,
	"designer": "Tushar Patil",
	"version": "Version 1.0",
	"fontId": "Robo",
	"psName": "Robo",
	"subFamily": "Regular",
	"fullName": "Robo",
	"description": "Font generated by IcoMoon."
}
]]>
</json>
</metadata>
<defs>
<font id="Robo" horiz-adv-x="1024">
<font-face units-per-em="1024" ascent="960" descent="-64" />
<missing-glyph horiz-adv-x="1024" />
<glyph unicode="&#x20;" horiz-adv-x="512" d="" />
<glyph unicode="&#x28;" glyph-name="normalscreen" data-tags="normalscreen" d="M435.2 506.88c0-1.28 0-1.28-1.28-1.28h-317.44c-8.96 0-16.64 3.84-24.32 8.96-6.4 6.4-10.24 14.080-10.24 23.040s3.84 16.64 10.24 23.040c6.4 6.4 15.36 8.96 24.32 8.96h243.2l-259.84 261.12c-6.4 6.4-10.24 14.080-10.24 23.040s2.56 16.64 8.96 23.040c6.4 6.4 14.080 8.96 23.040 8.96s16.64-3.84 23.040-10.24l259.84-259.84v243.2c0 8.96 2.56 16.64 8.96 24.32 6.4 6.4 14.080 10.24 23.040 10.24s16.64-3.84 23.040-10.24c6.4-6.4 8.96-15.36 8.96-24.32v-317.44c0-1.28 0-1.28-1.28-1.28l1.28-1.28c0-3.84-1.28-7.68-2.56-11.52s-3.84-6.4-5.12-8.96c-1.28 0-1.28 0-1.28-1.28 0 0 0-1.28-1.28-1.28 0-1.28 0-1.28-1.28-1.28 0 0-1.28 0-1.28-1.28-2.56-1.28-6.4-3.84-8.96-5.12-3.84-1.28-7.68-2.56-11.52-2.56v1.28zM602.88 405.76c0 1.28 0 1.28 1.28 1.28h317.44c8.96 0 16.64-3.84 24.32-8.96 6.4-6.4 10.24-14.080 10.24-23.040s-3.84-16.64-10.24-23.040c-6.4-6.4-15.36-8.96-24.32-8.96h-243.2l256-254.72c6.4-6.4 10.24-14.080 10.24-23.040s-2.56-16.64-8.96-23.040c-6.4-6.4-14.080-8.96-23.040-8.96s-16.64 3.84-23.040 10.24l-254.72 253.44v-243.2c0-8.96-2.56-16.64-8.96-24.32-6.4-6.4-14.080-10.24-23.040-10.24s-16.64 3.84-23.040 10.24c-6.4 6.4-8.96 15.36-8.96 24.32v318.72c0 1.28 0 1.28 1.28 1.28l-1.28 1.28c0 3.84 1.28 7.68 2.56 11.52s3.84 6.4 5.12 8.96c1.28 0 1.28 0 1.28 1.28s0 1.28 1.28 1.28c0 1.28 0 1.28 1.28 1.28 0 0 1.28 0 1.28 1.28 2.56 1.28 6.4 3.84 8.96 5.12 3.84 1.28 7.68 2.56 11.52 2.56l-1.28-2.56z" />
<glyph unicode="&#x29;" glyph-name="fullscreen" data-tags="fullscreen" d="M902.4 24.32c0-1.28 0-1.28-1.28-1.28h-317.44c-8.96 0-16.64 3.84-24.32 8.96-6.4 6.4-10.24 14.080-10.24 23.040s3.84 16.64 10.24 23.040c6.4 6.4 15.36 8.96 24.32 8.96h243.2l-259.84 261.12c-6.4 6.4-10.24 14.080-10.24 23.040s2.56 16.64 8.96 23.040c6.4 6.4 14.080 8.96 23.040 8.96s16.64-3.84 23.040-10.24l259.84-259.84v243.2c0 8.96 2.56 16.64 8.96 24.32 6.4 6.4 14.080 10.24 23.040 10.24s16.64-3.84 23.040-10.24c6.4-6.4 8.96-15.36 8.96-24.32v-317.44c0-1.28 0-1.28-1.28-1.28l1.28-1.28c0-3.84-1.28-7.68-2.56-11.52s-3.84-6.4-5.12-8.96c-1.28 0-1.28 0-1.28-1.28 0 0 0-1.28-1.28-1.28 0-1.28 0-1.28-1.28-1.28 0 0-1.28 0-1.28-1.28-2.56-1.28-6.4-3.84-8.96-5.12-3.84-1.28-7.68-2.56-11.52-2.56v1.28zM121.6 871.68c0 1.28 0 1.28 1.28 1.28h317.44c8.96 0 16.64-3.84 24.32-8.96 6.4-6.4 10.24-14.080 10.24-23.040s-3.84-16.64-10.24-23.040c-6.4-6.4-15.36-8.96-24.32-8.96h-243.2l254.72-254.72c6.4-6.4 10.24-14.080 10.24-23.040s-2.56-16.64-8.96-23.040c-6.4-6.4-14.080-8.96-23.040-8.96s-16.64 3.84-23.040 10.24l-254.72 253.44v-243.2c0-8.96-2.56-16.64-8.96-24.32-6.4-6.4-14.080-10.24-23.040-10.24s-16.64 3.84-23.040 10.24c-6.4 6.4-8.96 15.36-8.96 24.32v317.44c0 1.28 0 1.28 1.28 1.28l-2.56 1.28c0 3.84 1.28 7.68 2.56 11.52 2.56 3.84 3.84 6.4 6.4 8.96 1.28 0 1.28 0 1.28 1.28s0 1.28 1.28 1.28c0 1.28 0 1.28 1.28 1.28 0 0 1.28 0 1.28 1.28 1.28 1.28 3.84 2.56 7.68 5.12 3.84 1.28 7.68 2.56 11.52 2.56l1.28-1.28z" />
<glyph unicode="&#x2b;" glyph-name="add" data-tags="add" d="M966.4 497.92h-404.48v404.48h-101.12v-404.48h-403.2v-99.84h403.2v-404.48h101.12v404.48h404.48z" />
<glyph unicode="&#x31;" glyph-name="singlepage" data-tags="singlepage" d="M760.006 803.271v-464.797h-255.612v-245.734h-240.403v710.532h496.026zM786.316 829.568h-548.63v-763.136h293.030v245.747h255.6v517.389zM592.944 76.552v177.437h182.358z" />
<glyph unicode="&#x32;" glyph-name="twopage" data-tags="twopage" d="M523.498 781.568h-479.595v-667.136h712.754v214.822h223.446v452.314h-456.604zM500.502 352.25v-214.822h-433.626v621.15h433.638v-406.327zM957.119 352.25h-223.446v-214.822h-210.18v621.15h433.638v-406.327zM137.97 323.294h307.050v-25.030h-307.050v25.030zM137.97 397.27h307.050v-25.030h-307.050v25.030zM129.673 631.687h227.706v-25.030h-227.706v25.030zM137.643 473.047h307.062v-25.047h-307.062v25.047zM811.079 123.28l159.407 155.117h-159.407z" />
<glyph unicode="&#x38;" glyph-name="tickmark" data-tags="tickmark" d="M98.56 433.92c-20.48-20.48-16.64-46.080 5.12-66.56s142.080-142.080 161.28-161.28c75.52-75.52 147.2-55.040 190.72-11.52 17.92 17.92 437.76 437.76 458.24 458.24 29.44 29.44 37.12 51.2 15.36 72.96-23.040 23.040-52.48 12.8-78.080-12.8 0 0-423.68-421.12-445.44-442.88-25.6-25.6-57.6-21.76-83.2 3.84 0 0-129.28 128-148.48 147.2s-53.76 35.84-75.52 12.8z" />
<glyph unicode="&#x3c;" glyph-name="leftarrow" data-tags="leftarrow" d="M725.76 876.8c-10.24 10.24-30.72 8.96-38.4 0-7.68-6.4-418.56-405.76-426.24-413.44-8.96-8.96-8.96-23.040 0-30.72s417.28-404.48 424.96-413.44c11.52-11.52 25.6-14.080 37.12-2.56s28.16 28.16 37.12 37.12c7.68 7.68 11.52 25.6 0 37.12 0 0-343.040 332.8-350.72 340.48s-10.24 20.48 0 30.72c14.080 14.080 336.64 331.52 348.16 343.040 8.96 8.96 8.96 29.44-2.56 40.96-7.68 11.52-29.44 30.72-29.44 30.72z" />
<glyph unicode="&#x3e;" glyph-name="rightarrow" data-tags="rightarrow" d="M299.52 875.52c10.24 10.24 30.72 8.96 38.4 0 6.4-6.4 418.56-405.76 424.96-413.44 8.96-8.96 7.68-23.040 0-30.72-7.68-8.96-416-405.76-423.68-413.44-11.52-11.52-25.6-14.080-37.12-2.56s-28.16 28.16-37.12 37.12c-7.68 7.68-11.52 25.6 0 37.12 0 0 343.040 332.8 350.72 340.48s10.24 20.48 0 30.72c-15.36 15.36-337.92 332.8-349.44 344.32-8.96 8.96-10.24 29.44 2.56 40.96 8.96 10.24 30.72 29.44 30.72 29.44z" />
<glyph unicode="&#x40;" glyph-name="share" data-tags="share" d="M806.925 236.544c-48.499 30.63-111.309 19.674-147.034-23.245l-278.95 176.090c6.093 13.926 9.498 29.299 9.459 45.478-0.038 16.346-3.635 31.846-9.92 45.862l279.411 176.384c35.725-42.931 98.534-53.862 147.034-23.245 52.787 33.331 68.557 103.13 35.251 155.904-33.331 52.787-103.13 68.557-155.917 35.238-48.499-30.63-65.651-92.032-42.24-142.758l-279.142-176.218c-20.8 25.421-52.416 41.626-87.821 41.536-62.413-0.179-112.87-50.918-112.691-113.331s50.918-112.883 113.331-112.704c35.571 0.102 67.226 16.666 87.872 42.406l278.464-175.782c-23.411-50.726-6.259-112.128 42.24-142.746 52.787-33.331 122.586-17.549 155.917 35.238 33.293 52.774 17.523 122.573-35.264 155.891z" />
<glyph unicode="&#x41;" glyph-name="assessment" data-tags="assessment" d="M751.36 126.72v241.92l51.2 60.16v-302.080c0-34.56-12.8-65.28-37.12-89.6s-55.040-37.12-89.6-37.12h-417.28c-35.84 0-65.28 12.8-89.6 37.12s-37.12 55.040-37.12 89.6v561.92c0 34.56 12.8 65.28 37.12 89.6s55.040 37.12 89.6 37.12h107.52l-17.92-51.2h-89.6c-20.48 0-38.4-7.68-53.76-21.76s-23.040-32-23.040-53.76v-561.92c0-20.48 7.68-38.4 23.040-53.76 15.36-14.080 33.28-21.76 53.76-21.76h417.28c20.48 0 38.4 7.68 53.76 21.76 14.080 15.36 21.76 33.28 21.76 53.76zM398.080 624.64v-138.24h-138.24v138.24h138.24zM398.080 445.44v-138.24h-138.24v138.24h138.24zM259.84 129.28v138.24h138.24v-138.24h-138.24zM378.88 504.32v101.12h-99.84v-101.12h99.84zM378.88 326.4v99.84h-99.84v-99.84h99.84zM279.040 248.32v-99.84h99.84v99.84h-99.84zM299.52 684.8c12.8 20.48 32 39.68 55.040 57.6h243.2c20.48-12.8 39.68-32 56.32-57.6h-354.56zM520.96 869.12c16.64-23.040 26.88-56.32 30.72-99.84h-166.4c3.84 74.24 24.32 115.2 58.88 124.16 35.84 7.68 61.44 0 76.8-24.32zM468.48 805.12c8.96 0 16.64 2.56 23.040 8.96s8.96 12.8 8.96 21.76-2.56 16.64-8.96 23.040-14.080 8.96-23.040 8.96-15.36-2.56-21.76-8.96-8.96-14.080-8.96-23.040 2.56-15.36 8.96-21.76c6.4-5.12 12.8-8.96 21.76-8.96zM751.36 688.64c0 20.48-7.68 38.4-21.76 53.76-14.080 14.080-32 21.76-53.76 21.76h-89.6l-19.2 51.2h107.52c32 0 60.16-10.24 83.2-32 24.32-21.76 37.12-47.36 42.24-78.080l1.28-136.96-52.48-42.24 2.56 162.56zM637.44 407.040c10.24-8.96 17.92-12.8 21.76-12.8s10.24 2.56 16.64 10.24l217.6 216.32 25.6-25.6-230.4-229.12c-12.8-10.24-24.32-15.36-33.28-15.36-5.12 0-12.8 3.84-21.76 10.24l-104.96 104.96 25.6 25.6 83.2-84.48z" />
<glyph unicode="&#x43;" glyph-name="Collaboration_empty" data-tags="Collaboration_empty" d="M651.52 33.638c-46.592-15.923-96.384-24.986-148.326-24.986-253.875 0-460.39 206.515-460.39 460.39s206.515 460.442 460.39 460.442 460.416-206.541 460.416-460.416c0-66.893-14.669-130.355-40.448-187.75 1.382-1.050 2.79-1.997 4.122-3.072 26.266 58.266 41.242 122.752 41.242 190.822 0 256.998-208.358 465.331-465.331 465.331s-465.331-208.333-465.331-465.331c0-256.973 208.333-465.331 465.331-465.331 52.915 0 103.578 9.242 150.963 25.549-0.896 1.408-1.715 2.918-2.637 4.352zM564.352 449.050c-48.179 3.789-71.526 119.296-71.526 119.296s45.67-26.65 95.155-35.533c49.51-8.909 73.754 7.885 63.923 24.090-6.067 10.035-41.242 48.179-65.997 90.112-7.757 13.133-5.043 64.717-5.043 86.272 0 21.581-26.65 64.717-64.717 64.717s-178.125 1.28-242.816 1.28c-64.717 0-102.784-41.882-102.784-76.134 0 0 0-223.462 0-271.565 0-48.435-3.021-132.096 22.349-157.44 25.37-25.37 160.384-53.171 160.384-53.171s-75.315 70.963-75.315 101.837c0 14.72-5.99 12.365 51.2 12.365 26.65 0 188.749 0 208.563 0 30.438 0 24.090 41.856 24.090 51.994s32.998 10.138 35.507 16.538c2.534 6.323 15.232 21.581-32.973 25.344zM476.262 628.787c3.968 5.888 6.298 13.030 6.298 20.659 0 20.454-16.563 37.018-36.966 37.018-20.454 0-36.992-16.563-36.992-37.018 0-10.829 4.736-20.48 12.134-27.213-14.874 8.192-25.062 23.859-25.062 42.035 0 26.624 21.555 48.179 48.179 48.179 26.598 0 48.154-21.555 48.154-48.179 0-14.131-6.118-26.675-15.744-35.482zM822.246 296.576c0 23.578-8.96 32.922-42.829 32.922-28.006 0-88.602 0-105.062 0s-28.006-19.2-28.006-28.544c0-9.318 1.152-31.642-2.202-37.35-10.701-18.125-25.958-34.637-28.544-38.938-4.25-7.040 11.776-13.030 33.562-13.030 28.979 0 39.322 11.75 39.322 11.75s-14.131-34.995-34.97-36.634c-20.864-1.638-15.411-8.243-14.285-10.982 1.075-2.739 15.386-2.739 15.386-7.117 0-4.429-2.765-21.99 10.394-22.528 9.344-0.384 83.046 0 94.566 0 18.662 0 17.843-7.552 17.843-14.157 0-13.338-32.563-35.277-32.563-35.277s58.394 12.032 69.402 22.989c10.982 10.982 10.65 38.426 9.651 59.366-0.998 20.864-1.664 117.53-1.664 117.53zM725.018 236.646c-15.411 0-27.853 12.442-27.853 27.827 0 4.48 1.152 8.653 3.021 12.365-0.256-1.306-0.768-2.509-0.768-3.866 0-11.827 9.574-21.376 21.402-21.376 11.802 0 21.325 9.549 21.325 21.376 0 8.243-4.813 15.232-11.648 18.765 12.723-2.534 22.323-13.747 22.323-27.264 0-15.386-12.442-27.827-27.802-27.827zM822.118 668.314h-86.042c-17.357 0-31.462-14.106-31.462-31.462v-127.539l-37.786-37.76h155.264c17.408 0 31.462 14.080 31.462 31.437v133.862c0.051 17.382-14.029 31.462-31.437 31.462zM843.725 502.963c0-11.878-9.677-21.555-21.606-21.555h-131.43l23.808 23.782v131.61c0 11.904 9.677 21.606 21.581 21.606h86.042c11.93 0 21.606-9.702 21.606-21.606v-133.837zM553.395 254.592c0 15.232-12.314 27.571-27.571 27.571h-55.168c-15.232 0-27.571-12.339-27.571-27.571v-48.435c0-15.232 12.339-27.597 27.571-27.597h115.917l-33.178 33.203v42.829zM562.739 188.442h-92.083c-9.754 0-17.715 7.962-17.715 17.715v48.435c0 9.754 7.962 17.69 17.715 17.69h55.168c9.779 0 17.715-7.962 17.715-17.69v-46.925l2.867-2.867 16.333-16.358z" />
<glyph unicode="&#x44;" glyph-name="download" data-tags="download" d="M304.64 488.96c-3.84 3.84-8.96 6.4-15.36 6.4-5.12 0-10.24-2.56-15.36-6.4-8.96-7.68-8.96-21.76 0-29.44l238.080-238.080 238.080 238.080c7.68 8.96 7.68 21.76 0 29.44-8.96 7.68-21.76 7.68-29.44 0l-186.88-185.6v527.36c0 11.52-8.96 21.76-21.76 21.76-11.52 0-21.76-8.96-21.76-21.76v-527.36l-185.6 185.6zM101.12 44.8h820.48c11.52 0 20.48 8.96 20.48 20.48v184.32c0 11.52-8.96 20.48-20.48 20.48s-20.48-8.96-20.48-20.48v-163.84h-779.52v163.84c0 11.52-8.96 20.48-20.48 20.48s-20.48-8.96-20.48-20.48v-184.32c0-11.52 10.24-20.48 20.48-20.48v0z" />
<glyph unicode="&#x46;" glyph-name="FUNDAMENTALS_OF_ACCOUNTING" data-tags="FUNDAMENTALS_OF_ACCOUNTING-01" d="M256 336.64h66.56v-66.56h-66.56v66.56zM367.36 336.64h66.56v-66.56h-66.56v66.56zM256 551.68h66.56v-66.56h-66.56v66.56zM256 444.16h66.56v-66.56h-66.56v66.56zM478.72 551.68h66.56v-66.56h-66.56v66.56zM256 691.2h288v-85.76h-288v85.76zM875.52 755.2c-57.6 30.72-250.88 140.8-291.84 166.4-40.96 24.32-110.080 25.6-153.6 0-42.24-24.32-293.12-170.24-316.16-184.32-38.4-23.040-56.32-66.56-55.040-103.68 0-39.68-1.28-353.28 0-377.6 2.56-33.28 6.4-65.28 46.080-89.6 33.28-19.2 303.36-170.24 337.92-190.72 32-19.2 85.76-28.16 135.68-2.56 65.28 34.56 284.16 160 317.44 179.2 46.080 28.16 67.84 47.36 67.84 103.68 0 0 0 323.84 0 377.6-1.28 55.040-30.72 89.6-88.32 121.6zM234.24 211.2c-12.8 0-23.040 10.24-23.040 23.040v482.56c0 12.8 10.24 23.040 23.040 23.040h331.52c12.8 0 23.040-10.24 23.040-23.040v-268.8c-16.64-7.68-32-16.64-44.8-29.44v25.6h-66.56v-161.28c0-3.84 0-6.4 0-10.24 0-21.76 3.84-42.24 10.24-62.72h-253.44zM668.16 103.68c-71.68 0-133.12 44.8-158.72 107.52-7.68 17.92-11.52 38.4-11.52 58.88 0 1.28 0 2.56 0 3.84 0 44.8 17.92 85.76 46.080 116.48 12.8 14.080 28.16 25.6 44.8 34.56 23.040 12.8 49.92 19.2 79.36 19.2 93.44 0 170.24-76.8 170.24-170.24s-75.52-170.24-170.24-170.24zM367.36 444.16h66.56v-66.56h-66.56v66.56zM742.4 331.52h-29.44c-2.56 8.96-5.12 17.92-11.52 24.32h39.68c1.28 0 2.56 0 3.84 1.28s1.28 2.56 1.28 3.84v17.92c0 1.28 0 2.56-1.28 3.84s-2.56 1.28-3.84 1.28h-140.8c-1.28 0-2.56 0-3.84-1.28s-1.28-2.56-1.28-3.84v-23.040c0-1.28 0-2.56 1.28-3.84s2.56-1.28 3.84-1.28h24.32c24.32 0 39.68-6.4 46.080-19.2h-70.4c-1.28 0-2.56 0-3.84-1.28s-1.28-2.56-1.28-3.84v-17.92c0-1.28 0-2.56 1.28-3.84s2.56-1.28 3.84-1.28h72.96c-2.56-8.96-8.96-16.64-17.92-21.76s-21.76-7.68-35.84-7.68h-19.2c-1.28 0-2.56 0-3.84-1.28s-1.28-2.56-1.28-3.84v-21.76c0-1.28 0-2.56 1.28-3.84 21.76-23.040 49.92-55.040 84.48-97.28 1.28-1.28 2.56-2.56 3.84-2.56h33.28c2.56 0 3.84 1.28 5.12 2.56 1.28 2.56 1.28 3.84-1.28 5.12-33.28 40.96-58.88 71.68-78.080 90.88 19.2 2.56 34.56 8.96 47.36 19.2 11.52 10.24 19.2 23.040 21.76 39.68h29.44c1.28 0 2.56 0 3.84 1.28s1.28 2.56 1.28 3.84v17.92c0 1.28 0 2.56-1.28 3.84-1.28 3.84-2.56 3.84-3.84 3.84zM367.36 551.68h66.56v-66.56h-66.56v66.56z" />
<glyph unicode="&#x47;" glyph-name="downarrow" data-tags="downarrow" d="M512 188.16l448 460.8-60.16 58.88-387.84-399.36-387.84 399.36-60.16-58.88 448-460.8z" />
<glyph unicode="&#x48;" glyph-name="uparrow" data-tags="uparrow" d="M512 707.84l-448-460.8 60.16-58.88 387.84 399.36 387.84-399.36 60.16 58.88-448 460.8z" />
<glyph unicode="&#x4c;" glyph-name="play" data-tags="play" d="M748.8 495.36l20.48-21.76c5.12-6.4 7.68-11.52 7.68-17.92s-2.56-11.52-7.68-17.92l-20.48-21.76-398.080-360.96c-23.040-19.2-43.52-29.44-60.16-29.44-20.48 0-34.56 10.24-43.52 29.44v766.72c7.68 28.16 21.76 43.52 43.52 48.64 16.64 2.56 35.84-5.12 56.32-23.040s37.12-32 47.36-42.24c23.040-20.48 55.040-47.36 94.72-83.2 39.68-34.56 79.36-69.12 117.76-102.4 38.4-34.56 85.76-75.52 142.080-124.16z" />
<glyph unicode="&#x4d;" glyph-name="mybook_empty" data-tags="mybook_empty" d="M512 908.39c253.875 0 460.39-206.515 460.39-460.39s-206.515-460.39-460.39-460.39-460.39 206.515-460.39 460.39 206.515 460.39 460.39 460.39zM512 913.331c-256.998 0-465.331-208.333-465.331-465.331 0-256.973 208.333-465.331 465.331-465.331 256.973 0 465.331 208.358 465.331 465.331 0 256.998-208.358 465.331-465.331 465.331v0zM236.211 227.661v509.389h419.61v-193.152h-180.89v-160.512h-118.349c-16.768 0-31.053-5.862-42.854-17.664s-17.664-25.856-17.664-42.163v-87.040c0-1.357 0.23-2.842 0.666-4.429 0.461-1.613 0.666-3.046 0.666-4.403h-61.184zM236.877 737.050v0zM677.606 758.81v-214.912l-6.118-2.714v211.482h-384.947l-25.856-15.642h-23.808l41.498 21.76h399.232zM586.47 236.467c0-13.158-4.685-24.243-13.952-33.331-9.293-9.062-20.301-13.568-32.998-13.568h-182.938c-13.158 0-24.243 4.506-33.306 13.568-9.088 9.062-13.619 20.173-13.619 33.331v87.040c0 13.158 4.531 24.243 13.619 33.357 9.062 9.062 20.147 13.568 33.306 13.568h182.938c12.698 0 23.706-4.531 32.998-13.568 9.267-9.088 13.952-20.198 13.952-33.357v-87.040zM406.938 221.517l82.97 59.162-82.97 57.83v-116.992zM671.462 519.398l111.539-111.514v-258.458h-281.549v25.856h12.237v-13.594h253.696v242.765h-95.898v99.994h-157.798v-119.706h-12.237v134.682h170.010zM553.83 435.046v-22.426h63.923v22.426h-63.923zM723.149 342.579v-23.117h-125.798v4.070c0 3.635-0.23 6.912-0.666 9.882-0.486 2.944-1.152 5.965-2.048 9.165h128.512zM598.707 236.467v3.405h125.158v-22.451h-129.229c1.382 3.174 2.406 6.221 3.072 9.19s0.998 6.246 0.998 9.856zM598.707 291.584v-23.142h125.158v23.142h-125.158zM685.747 418.739h68.71l-68.71 68.685v-68.685z" />
<glyph unicode="&#x50;" glyph-name="Poweredbymteducare-01" data-tags="Poweredbymteducare-01" horiz-adv-x="6031" d="M385.62 448v-152.304h-29.165v369.418h126.38c38.886 0 68.051-9.722 90.734-29.165s32.405-45.367 32.405-77.772c0-32.405-9.722-58.329-32.405-77.772s-51.848-29.165-90.734-29.165h-97.215zM385.62 473.924h97.215c29.165 0 51.848 6.481 68.051 22.684s22.684 35.646 22.684 58.329c0 22.684-6.481 42.127-22.684 58.329s-38.886 22.684-68.051 22.684h-97.215v-162.025zM648.101 438.278c0 38.886 9.722 74.532 32.405 100.456s51.848 38.886 87.494 38.886c35.646 0 64.81-12.962 87.494-38.886s32.405-58.329 32.405-100.456v-9.722c0-42.127-9.722-74.532-32.405-100.456s-51.848-38.886-87.494-38.886c-35.646 0-64.81 12.962-87.494 38.886s-32.405 58.329-32.405 100.456v9.722zM677.266 428.557c0-32.405 6.481-58.329 22.684-81.013s38.886-32.405 68.051-32.405c29.165 0 51.848 9.722 68.051 32.405s22.684 48.608 22.684 81.013v9.722c0 32.405-9.722 58.329-25.924 81.013s-38.886 32.405-68.051 32.405-51.848-9.722-68.051-32.405c-16.203-22.684-22.684-48.608-22.684-81.013v-9.722zM1014.278 383.19l9.722-48.608 12.962 48.608 58.329 184.709h25.924l58.329-184.709 12.962-51.848 12.962 51.848 48.608 184.709h32.405l-81.013-275.443h-25.924l-61.57 187.949-9.722 45.367-9.722-45.367-61.57-184.709h-25.924l-81.013 275.443h32.405l51.848-187.949zM1451.747 289.215c-35.646 0-64.81 12.962-87.494 38.886s-32.405 58.329-32.405 97.215v12.962c0 38.886 9.722 71.291 32.405 97.215s48.608 38.886 84.253 38.886c32.405 0 58.329-9.722 77.772-32.405s25.924-48.608 25.924-87.494v-22.684h-191.19v-9.722c0-32.405 6.481-58.329 22.684-77.772s38.886-32.405 64.81-32.405c16.203 0 32.405 3.241 45.367 9.722s25.924 12.962 35.646 22.684l12.962-19.443c-9.722-9.722-22.684-19.443-38.886-25.924-12.962-6.481-32.405-9.722-51.848-9.722zM1448.506 548.456c-22.684 0-42.127-9.722-58.329-25.924s-22.684-38.886-25.924-64.81v0h158.785v6.481c0 25.924-6.481 45.367-19.443 61.57s-32.405 22.684-55.089 22.684zM1736.911 541.975h-22.684c-19.443 0-35.646-6.481-45.367-16.203-12.962-9.722-19.443-25.924-25.924-45.367v-187.949h-29.165v278.684h25.924l3.241-45.367v-3.241c6.481 16.203 19.443 29.165 32.405 38.886s29.165 12.962 48.608 12.962c3.241 0 6.481 0 9.722 0s6.481 0 9.722-3.241l-6.481-29.165zM1889.215 289.215c-35.646 0-64.81 12.962-87.494 38.886s-32.405 58.329-32.405 97.215v12.962c0 38.886 9.722 71.291 32.405 97.215s48.608 38.886 84.253 38.886c32.405 0 58.329-9.722 77.772-32.405s25.924-48.608 25.924-87.494v-22.684h-191.19v-9.722c0-32.405 6.481-58.329 22.684-77.772s38.886-32.405 64.81-32.405c16.203 0 32.405 3.241 45.367 9.722s25.924 12.962 35.646 22.684l12.962-19.443c-9.722-9.722-22.684-19.443-38.886-25.924-12.962-6.481-29.165-9.722-51.848-9.722zM1885.975 548.456c-22.684 0-42.127-9.722-58.329-25.924s-22.684-38.886-25.924-64.81v0h155.544v6.481c0 25.924-6.481 45.367-19.443 61.57-9.722 16.203-29.165 22.684-51.848 22.684zM2038.278 431.797c0 42.127 9.722 77.772 29.165 103.696s45.367 38.886 77.772 38.886c19.443 0 35.646-3.241 48.608-12.962 12.962-6.481 25.924-19.443 35.646-32.405v162.025h29.165v-395.342h-22.684l-3.241 38.886c-9.722-12.962-22.684-25.924-35.646-32.405s-32.405-12.962-51.848-12.962c-32.405 0-58.329 12.962-77.772 35.646s-29.165 58.329-29.165 97.215v9.722zM2070.684 425.316c0-32.405 6.481-58.329 19.443-77.772s32.405-29.165 58.329-29.165c19.443 0 35.646 3.241 48.608 12.962s22.684 19.443 29.165 35.646v129.62c-6.481 16.203-16.203 29.165-29.165 38.886s-29.165 16.203-48.608 16.203c-25.924 0-45.367-9.722-61.57-32.405s-19.443-51.848-19.443-84.253v-9.722zM2686.38 425.316c0-42.127-9.722-74.532-29.165-97.215-19.443-25.924-45.367-35.646-77.772-35.646-19.443 0-35.646 3.241-51.848 12.962-16.203 6.481-25.924 19.443-35.646 35.646l-6.481-42.127h-22.684v392.101h32.405v-162.025c9.722 16.203 19.443 25.924 35.646 35.646s32.405 12.962 51.848 12.962c32.405 0 58.329-12.962 77.772-38.886s29.165-61.57 29.165-103.696v-9.722zM2657.215 431.797c0 35.646-6.481 64.81-19.443 84.253-12.962 22.684-32.405 32.405-61.57 32.405-19.443 0-38.886-6.481-51.848-16.203s-22.684-22.684-29.165-38.886v-126.38c6.481-16.203 16.203-29.165 29.165-38.886s29.165-12.962 48.608-12.962c25.924 0 45.367 9.722 58.329 29.165s19.443 45.367 19.443 77.772v9.722zM2828.962 370.228l9.722-32.405 84.253 233.316h32.405l-119.899-317.57c-6.481-19.443-16.203-35.646-29.165-48.608-9.722-12.962-29.165-19.443-48.608-19.443-3.241 0-6.481 0-12.962 0s-9.722 0-9.722 3.241l3.241 25.924c3.241 0 6.481 0 9.722 0s6.481 0 9.722 0c12.962 0 22.684 3.241 32.405 12.962 6.481 9.722 16.203 22.684 19.443 35.646l12.962 35.646-100.456 272.203h32.405l74.532-200.911zM3318.278 363.747v0l119.899 298.127h61.57v-369.418h-48.608v278.684l-110.177-275.443h-35.646l-113.418 285.165v-285.165h-48.608v369.418h64.81l110.177-301.367zM3836.759 626.228h-123.139v-330.532h-48.608v330.532h-119.899v38.886h291.646v-38.886zM4089.519 467.443h-152.304v-132.861h178.228v-38.886h-226.835v369.418h223.595v-38.886h-174.987v-119.899h152.304v-38.886zM4151.089 428.557c0 45.367 9.722 81.013 29.165 106.937s45.367 42.127 77.772 42.127c16.203 0 29.165-3.241 42.127-9.722s22.684-12.962 32.405-25.924v149.063h48.608v-395.342h-38.886l-6.481 35.646c-9.722-12.962-19.443-22.684-32.405-29.165s-29.165-9.722-45.367-9.722c-32.405 0-58.329 12.962-77.772 35.646s-29.165 55.089-29.165 93.975v6.481zM4199.696 422.076c0-29.165 6.481-48.608 16.203-68.051s29.165-25.924 51.848-25.924c16.203 0 25.924 3.241 38.886 9.722s19.443 16.203 25.924 29.165v126.38c-6.481 9.722-16.203 19.443-25.924 25.924s-22.684 9.722-35.646 9.722c-22.684 0-42.127-9.722-51.848-29.165s-16.203-45.367-16.203-77.772v0zM4630.684 337.823c-9.722-16.203-19.443-25.924-32.405-32.405s-29.165-12.962-45.367-12.962c-29.165 0-51.848 9.722-71.291 29.165s-25.924 48.608-25.924 90.734v162.025h48.608v-162.025c0-29.165 3.241-48.608 12.962-61.57s22.684-16.203 38.886-16.203c16.203 0 32.405 3.241 45.367 9.722s19.443 16.203 25.924 29.165v197.671h48.608v-275.443h-42.127l-3.241 42.127zM4860.759 328.101c16.203 0 29.165 6.481 38.886 16.203s16.203 22.684 16.203 38.886h45.367c0-22.684-9.722-45.367-29.165-61.57s-45.367-25.924-74.532-25.924c-38.886 0-68.051 12.962-90.734 38.886s-32.405 58.329-32.405 97.215v9.722c0 38.886 9.722 71.291 32.405 97.215s51.848 38.886 87.494 38.886c29.165 0 55.089-9.722 74.532-29.165s29.165-42.127 29.165-68.051v0h-45.367c0 16.203-6.481 32.405-16.203 42.127s-25.924 16.203-42.127 16.203c-25.924 0-42.127-9.722-55.089-29.165s-16.203-42.127-16.203-68.051v-9.722c0-25.924 6.481-51.848 16.203-68.051s35.646-35.646 61.57-35.646zM5191.291 295.696c-3.241 9.722-3.241 16.203-3.241 22.684s0 12.962-3.241 19.443c-9.722-12.962-22.684-22.684-35.646-32.405s-32.405-12.962-48.608-12.962c-29.165 0-51.848 6.481-64.81 22.684s-22.684 35.646-22.684 61.57c0 25.924 9.722 45.367 32.405 61.57s48.608 22.684 87.494 22.684h55.089v25.924c0 16.203-6.481 29.165-16.203 38.886s-22.684 12.962-42.127 12.962c-16.203 0-29.165-3.241-38.886-12.962s-16.203-16.203-16.203-29.165h-48.608c0 19.443 9.722 38.886 29.165 55.089s45.367 25.924 77.772 25.924c32.405 0 55.089-6.481 74.532-22.684s29.165-38.886 29.165-68.051v-132.861c0-9.722 0-19.443 0-29.165s3.241-19.443 6.481-25.924h-51.848zM5110.278 331.342c19.443 0 35.646 3.241 48.608 12.962s22.684 19.443 29.165 32.405v45.367h-55.089c-19.443 0-35.646-6.481-48.608-16.203s-19.443-22.684-19.443-35.646c0-12.962 3.241-22.684 12.962-29.165s16.203-9.722 32.405-9.722zM5437.57 525.772h-25.924c-12.962 0-22.684-3.241-32.405-9.722s-16.203-16.203-19.443-25.924v-194.43h-48.608v275.443h45.367l3.241-38.886c6.481 12.962 16.203 25.924 29.165 32.405s25.924 12.962 38.886 12.962c3.241 0 6.481 0 9.722 0s6.481 0 9.722-3.241l-9.722-48.608zM5599.595 289.215c-38.886 0-71.291 12.962-90.734 38.886s-32.405 58.329-32.405 100.456v9.722c0 38.886 12.962 71.291 35.646 97.215s51.848 38.886 84.253 38.886c35.646 0 64.81-12.962 81.013-35.646s25.924-51.848 25.924-90.734v-25.924h-174.987c0-25.924 6.481-48.608 19.443-68.051s29.165-25.924 55.089-25.924c16.203 0 32.405 3.241 45.367 6.481s22.684 12.962 32.405 19.443l19.443-32.405c-9.722-9.722-22.684-16.203-38.886-22.684s-38.886-9.722-61.57-9.722zM5593.114 535.494c-16.203 0-32.405-6.481-42.127-19.443s-19.443-29.165-19.443-51.848v0h123.139v3.241c0 19.443-6.481 35.646-16.203 48.608s-25.924 19.443-45.367 19.443z" />
<glyph unicode="&#x51;" glyph-name="videoplay" data-tags="videoplay" d="M512 921.6c-261.12 0-473.6-212.48-473.6-473.6s212.48-473.6 473.6-473.6 473.6 212.48 473.6 473.6c0 261.12-212.48 473.6-473.6 473.6zM710.4 418.56c-70.4-65.28-275.2-248.32-275.2-248.32-15.36-14.080-30.72-20.48-42.24-20.48-14.080 0-24.32 6.4-30.72 20.48v542.72c5.12 20.48 15.36 32 30.72 34.56 11.52 2.56 25.6-3.84 39.68-16.64 15.36-12.8 25.6-23.040 33.28-29.44 16.64-14.080 38.4-33.28 66.56-58.88 28.16-24.32 56.32-48.64 83.2-72.96s66.56-57.6 92.16-80.64c19.2-15.36 29.44-46.080 2.56-70.4z" />
<glyph unicode="&#x52;" glyph-name="Robomatelogo_reverse" data-tags="Robomate logo_reverse" horiz-adv-x="3580" d="M815.35 1.444c0-1.54 0-3.080 0-3.85s-0.77-2.31-0.77-3.080c0-0.77-0.77-1.54-1.54-1.54s-0.77-0.77-1.54-0.77h-67.753c-1.54 0-3.85 0.77-5.389 1.54-1.54 1.54-2.31 3.080-2.31 6.159v142.436c0 0.77 0 1.54 0.77 1.54 0 0.77 0.77 0.77 1.54 0.77s1.54 0.77 3.080 0.77c1.54 0 3.080 0 4.62 0 2.31 0 3.85 0 4.62 0 1.54 0 2.31-0.77 3.080-0.77s1.54-0.77 1.54-0.77c0-0.77 0.77-0.77 0.77-1.54v-133.197h55.435c0.77 0 1.54 0 1.54-0.77 0.77 0 0.77-0.77 1.54-1.54 0-0.77 0.77-1.54 0.77-2.31s0-1.54 0-3.080zM926.989 53.029c0-3.080-0.77-5.389-2.31-6.929s-3.080-2.31-5.389-2.31h-70.063c0-6.159 0.77-11.549 1.54-16.168 1.54-4.62 3.080-8.469 6.159-12.319 3.080-3.080 6.159-6.159 10.779-7.699s10.009-3.080 16.168-3.080c5.389 0 10.009 0.77 13.859 1.54s7.699 1.54 10.009 3.080c3.080 0.77 5.389 2.31 6.929 3.080s3.080 1.54 4.62 1.54c0.77 0 0.77 0 1.54-0.77 0.77 0 0.77-0.77 0.77-1.54s0.77-1.54 0.77-2.31c0-0.77 0-2.31 0-3.85 0-0.77 0-1.54 0-2.31s0-1.54 0-2.31c0-0.77 0-0.77-0.77-1.54 0-0.77-0.77-0.77-0.77-1.54-0.77-0.77-1.54-0.77-3.85-2.31-2.31-0.77-4.62-2.31-8.469-3.080-3.080-0.77-7.699-1.54-11.549-2.31-4.62-0.77-9.239-0.77-14.629-0.77-8.469 0-16.168 1.54-23.098 3.85s-12.319 6.159-16.938 10.779c-4.62 4.62-7.699 10.779-10.009 18.478-2.31 6.929-3.080 15.398-3.080 25.408 0 9.239 1.54 17.708 3.85 24.638 2.31 7.699 6.159 13.859 10.009 18.478 4.62 5.389 10.009 9.239 16.168 11.549 6.159 3.080 13.089 3.85 21.558 3.85s15.398-1.54 21.558-3.85c6.159-2.31 10.779-6.159 14.629-10.779s6.929-10.009 8.469-16.168c1.54-6.159 2.31-12.319 2.31-20.018v-2.31zM906.971 59.188c0 10.009-2.31 18.478-6.929 23.868-4.62 6.159-12.319 8.469-21.558 8.469-4.62 0-9.239-0.77-13.089-3.080-3.85-1.54-6.929-3.85-9.239-6.929s-4.62-6.159-5.389-10.779c-1.54-3.85-2.31-8.469-2.31-12.319h58.514zM1037.089-4.716c0-0.77 0-1.54-0.77-2.31s-1.54-0.77-2.31-0.77c-0.77 0-3.080 0-4.62 0-2.31 0-3.85 0-4.62 0-1.54 0-2.31 0.77-2.31 0.77-0.77 0.77-0.77 1.54-0.77 2.31v10.779c-4.62-4.62-10.009-9.239-15.398-11.549-5.389-3.080-11.549-3.85-18.478-3.85-5.389 0-10.779 0.77-15.398 2.31s-8.469 3.85-11.549 6.159c-3.080 3.080-5.389 6.159-7.699 10.009-1.54 3.85-2.31 8.469-2.31 13.859 0 6.159 1.54 11.549 3.85 15.398 2.31 4.62 6.159 8.469 10.779 10.779 4.62 3.080 10.009 5.389 16.938 6.929s13.859 2.31 22.328 2.31h14.629v8.469c0 3.85-0.77 7.699-1.54 10.779s-2.31 6.159-3.85 7.699c-2.31 2.31-4.62 3.85-7.699 4.62s-6.929 1.54-11.549 1.54c-4.62 0-9.239-0.77-13.089-1.54s-6.929-2.31-10.009-3.85c-3.080-1.54-5.389-2.31-6.929-3.85-2.31-0.77-3.080-1.54-4.62-1.54-0.77 0-1.54 0-1.54 0.77-0.77 0-0.77 0.77-1.54 1.54 0 0.77-0.77 1.54-0.77 2.31s0 2.31 0 3.080 0 3.85 0.77 4.62c0 0.77 0.77 2.31 2.31 3.080 0.77 0.77 3.080 2.31 5.389 3.85s5.389 2.31 9.239 3.85c3.080 0.77 6.929 2.31 10.779 3.080s8.469 0.77 12.319 0.77c7.699 0 13.859-0.77 19.248-2.31s10.009-4.62 13.089-7.699c3.080-3.080 5.389-7.699 6.929-12.319s2.31-10.779 2.31-17.708v-72.373zM1017.841 43.789h-16.938c-5.389 0-10.009-0.77-13.859-1.54s-6.929-2.31-10.009-3.85c-2.31-1.54-4.62-3.85-5.389-6.159-1.54-2.31-1.54-5.389-1.54-8.469 0-5.389 1.54-10.009 5.389-13.089s8.469-4.62 14.629-4.62c5.389 0 10.009 1.54 14.629 3.85s9.239 6.929 13.859 12.319v21.558zM1135.639 95.374c0-1.54 0-3.080 0-4.62s0-2.31-0.77-3.080c0-0.77-0.77-1.54-0.77-1.54s-0.77-0.77-1.54-0.77c-0.77 0-1.54 0-2.31 0.77-0.77 0-2.31 0.77-3.080 0.77s-2.31 0.77-3.85 0.77c-1.54 0-3.080 0.77-4.62 0.77-2.31 0-3.85-0.77-6.159-1.54-1.54-0.77-3.85-2.31-6.159-3.85s-4.62-4.62-6.929-6.929c-2.31-3.080-4.62-6.929-7.699-10.779v-70.063c0-0.77 0-1.54-0.77-1.54 0-0.77-0.77-0.77-1.54-0.77s-1.54-0.77-3.080-0.77c-1.54 0-3.080 0-4.62 0s-3.85 0-4.62 0c-1.54 0-2.31 0.77-3.080 0.77s-1.54 0.77-1.54 0.77c0 0.77-0.77 0.77-0.77 1.54v107.020c0 0.77 0 1.54 0 1.54 0 0.77 0.77 0.77 1.54 1.54 0.77 0 1.54 0.77 3.080 0.77 0.77 0 2.31 0 4.62 0 1.54 0 3.080 0 4.62 0 0.77 0 2.31 0 2.31-0.77 0.77 0 0.77-0.77 1.54-1.54 0-0.77 0.77-0.77 0.77-1.54v-15.398c3.080 4.62 5.389 7.699 8.469 10.779 2.31 2.31 4.62 4.62 6.929 6.159s4.62 2.31 6.929 3.080c2.31 0.77 4.62 0.77 6.929 0.77 0.77 0 2.31 0 3.85 0s2.31 0 3.85-0.77c1.54 0 3.080-0.77 3.85-0.77 0.77-0.77 2.31-0.77 2.31-1.54 0.77-0.77 0.77-0.77 0.77-0.77s0-0.77 0.77-1.54c0-0.77 0-1.54 0-2.31 0.77-1.54 0.77-3.080 0.77-4.62zM1249.588-4.716c0-0.77 0-1.54-0.77-1.54 0-0.77-0.77-0.77-1.54-0.77s-1.54-0.77-3.080-0.77c-1.54 0-3.080 0-4.62 0-2.31 0-3.85 0-4.62 0-1.54 0-2.31 0.77-3.080 0.77s-1.54 0.77-1.54 0.77c0 0.77-0.77 0.77-0.77 1.54v62.364c0 6.159-0.77 10.779-1.54 14.629s-2.31 6.929-3.85 9.239c-1.54 2.31-3.85 4.62-6.929 6.159s-6.159 2.31-10.009 2.31c-4.62 0-10.009-1.54-14.629-5.389s-10.009-8.469-15.398-15.398v-74.683c0-0.77 0-1.54-0.77-1.54 0-0.77-0.77-0.77-1.54-0.77s-1.54-0.77-3.080-0.77c-1.54 0-3.080 0-4.62 0s-3.85 0-4.62 0c-1.54 0-2.31 0.77-3.080 0.77s-1.54 0.77-1.54 0.77c0 0.77-0.77 0.77-0.77 1.54v107.020c0 0.77 0 1.54 0 1.54 0 0.77 0.77 0.77 1.54 1.54 0.77 0 1.54 0.77 3.080 0.77 0.77 0 2.31 0 4.62 0 1.54 0 3.080 0 4.62 0 0.77 0 2.31 0 2.31-0.77 0.77 0 0.77-0.77 1.54-1.54 0-0.77 0.77-0.77 0.77-1.54v-13.859c6.159 6.929 12.319 11.549 17.708 14.629 6.159 3.080 12.319 4.62 18.478 4.62 6.929 0 13.089-1.54 17.708-3.85s8.469-5.389 11.549-10.009c3.080-3.85 5.389-8.469 6.159-13.859 1.54-5.389 2.31-11.549 2.31-19.248v-64.674zM1307.332 138.49c0-4.62-0.77-7.699-2.31-9.239s-4.62-2.31-9.239-2.31c-4.62 0-7.699 0.77-9.239 2.31s-2.31 4.62-2.31 9.239c0 4.62 0.77 7.699 2.31 9.239s4.62 2.31 9.239 2.31c4.62 0 7.699-0.77 9.239-2.31 1.54-2.31 2.31-5.389 2.31-9.239zM1305.023-4.716c0-0.77 0-1.54-0.77-1.54 0-0.77-0.77-0.77-1.54-0.77s-1.54-0.77-3.080-0.77c-1.54 0-3.080 0-4.62 0s-3.85 0-4.62 0c-1.54 0-2.31 0.77-3.080 0.77s-1.54 0.77-1.54 0.77c0 0.77-0.77 0.77-0.77 1.54v107.020c0 0.77 0 0.77 0.77 1.54 0 0.77 0.77 0.77 1.54 1.54 0.77 0 1.54 0.77 3.080 0.77s3.080 0 4.62 0c2.31 0 3.85 0 4.62 0 1.54 0 2.31-0.77 3.080-0.77s1.54-0.77 1.54-1.54c0-0.77 0.77-0.77 0.77-1.54v-107.020zM1433.6-4.716c0-0.77 0-1.54-0.77-1.54 0-0.77-0.77-0.77-1.54-0.77s-1.54-0.77-3.080-0.77c-1.54 0-3.080 0-4.62 0-2.31 0-3.85 0-4.62 0-1.54 0-2.31 0.77-3.080 0.77s-1.54 0.77-1.54 0.77c0 0.77-0.77 0.77-0.77 1.54v62.364c0 6.159-0.77 10.779-1.54 14.629s-2.31 6.929-3.85 9.239c-1.54 2.31-3.85 4.62-6.929 6.159s-6.159 2.31-10.009 2.31c-4.62 0-10.009-1.54-14.629-5.389s-10.009-8.469-15.398-15.398v-74.683c0-0.77 0-1.54-0.77-1.54 0-0.77-0.77-0.77-1.54-0.77s-1.54-0.77-3.080-0.77c-1.54 0-3.080 0-4.62 0s-3.85 0-4.62 0c-1.54 0-2.31 0.77-3.080 0.77s-1.54 0.77-1.54 0.77c0 0.77-0.77 0.77-0.77 1.54v107.020c0 0.77 0 1.54 0 1.54 0 0.77 0.77 0.77 1.54 1.54 0.77 0 1.54 0.77 3.080 0.77 0.77 0 2.31 0 4.62 0 1.54 0 3.080 0 4.62 0 0.77 0 2.31 0 2.31-0.77 0.77 0 0.77-0.77 1.54-1.54 0-0.77 0.77-0.77 0.77-1.54v-13.859c6.159 6.929 12.319 11.549 17.708 14.629s12.319 4.62 18.478 4.62c6.929 0 13.089-1.54 17.708-3.85s8.469-5.389 11.549-10.009c3.080-3.85 5.389-8.469 6.159-13.859 1.54-5.389 2.31-11.549 2.31-19.248v-64.674zM1558.328 96.914c0-3.080 0-4.62-0.77-6.159s-1.54-1.54-3.080-1.54h-15.398c3.080-3.080 4.62-6.159 6.159-9.239 0.77-3.080 1.54-6.929 1.54-10.779 0-6.159-0.77-11.549-3.080-16.168s-4.62-8.469-8.469-12.319c-3.85-3.080-7.699-6.159-13.089-7.699s-10.779-2.31-16.938-2.31c-4.62 0-8.469 0.77-12.319 1.54s-6.929 2.31-9.239 4.62c-1.54-1.54-2.31-3.080-3.85-4.62-0.77-1.54-1.54-3.85-1.54-6.159 0-3.080 1.54-5.389 3.85-6.929s6.159-3.080 10.009-3.080l27.717-1.54c5.389 0 10.009-0.77 14.629-2.31s8.469-3.080 11.549-5.389c3.080-2.31 6.159-5.389 7.699-9.239s3.080-7.699 3.080-12.319c0-4.62-0.77-9.239-3.080-13.859s-5.389-8.469-9.239-11.549c-3.85-3.080-10.009-6.159-16.168-7.699-6.929-2.31-14.629-3.080-23.098-3.080s-16.168 0.77-22.328 2.31c-6.159 1.54-10.779 3.080-14.629 6.159-3.85 2.31-6.929 5.389-8.469 9.239s-2.31 7.699-2.31 11.549c0 2.31 0 5.389 0.77 7.699s1.54 4.62 3.080 6.929c1.54 2.31 3.080 4.62 4.62 6.159 2.31 2.31 3.85 3.85 6.929 6.159-3.85 2.31-6.929 4.62-8.469 7.699s-3.080 6.159-3.080 10.009c0 4.62 0.77 9.239 3.080 13.089s4.62 6.929 7.699 10.009c-2.31 3.080-4.62 6.159-6.159 10.009s-2.31 8.469-2.31 13.089c0 6.159 0.77 11.549 3.080 16.168s4.62 9.239 8.469 12.319c3.85 3.080 7.699 6.159 13.089 7.699s10.779 2.31 16.938 2.31c3.080 0 6.159 0 9.239-0.77 3.080 0 5.389-0.77 7.699-1.54h32.337c1.54 0 2.31-0.77 3.080-2.31 0.77-0.77 0.77-3.080 0.77-6.159zM1537.54-15.495c0 4.62-1.54 8.469-5.389 10.779s-8.469 3.85-15.398 3.85l-27.717 0.77c-2.31-2.31-4.62-3.85-6.159-5.389s-3.080-3.85-3.85-5.389c-0.77-1.54-1.54-3.080-2.31-4.62 0-1.54-0.77-3.080-0.77-4.62 0-5.389 2.31-9.239 7.699-11.549s12.319-3.85 21.558-3.85c6.159 0 10.779 0.77 14.629 1.54s6.929 2.31 10.009 4.62c2.31 1.54 3.85 3.85 5.389 6.159s2.31 4.62 2.31 7.699zM1527.531 69.197c0 6.929-2.31 13.089-6.159 16.938s-10.009 6.159-16.938 6.159c-3.85 0-6.929-0.77-10.009-1.54-3.080-1.54-5.389-3.080-6.929-5.389s-3.080-4.62-3.85-7.699c-0.77-3.080-1.54-6.159-1.54-9.239 0-6.929 2.31-12.319 6.159-16.938 3.85-3.85 9.239-6.159 16.938-6.159 3.85 0 6.929 0.77 10.009 1.54 3.080 1.54 5.389 3.080 6.929 5.389s3.080 4.62 3.85 7.699c1.54 3.080 1.54 6.159 1.54 9.239zM1807.783-4.716c0-0.77 0-1.54-0.77-1.54 0-0.77-0.77-0.77-1.54-0.77s-1.54-0.77-3.080-0.77c-1.54 0-3.080 0-4.62 0s-3.85 0-4.62 0c-1.54 0-2.31 0.77-3.080 0.77s-1.54 0.77-1.54 0.77c0 0.77-0.77 0.77-0.77 1.54v133.967l-53.895-134.737c0-0.77-0.77-0.77-0.77-1.54-0.77-0.77-0.77-0.77-1.54-0.77s-1.54-0.77-3.080-0.77-2.31 0-3.85 0c-1.54 0-3.080 0-4.62 0s-2.31 0-3.080 0.77c-0.77 0-1.54 0.77-1.54 0.77-0.77 0.77-0.77 0.77-0.77 1.54l-51.585 134.737v-133.967c0-0.77 0-1.54-0.77-1.54 0-0.77-0.77-0.77-1.54-0.77s-1.54-0.77-3.080-0.77c-1.54 0-3.080 0-5.389 0s-3.85 0-4.62 0c-1.54 0-2.31 0.77-3.080 0.77s-1.54 0.77-1.54 0.77c0 0.77-0.77 0.77-0.77 1.54v140.896c0 3.080 0.77 5.389 2.31 6.929s3.85 2.31 6.159 2.31h12.319c2.31 0 4.62 0 6.929-0.77s3.85-1.54 5.389-2.31c1.54-0.77 2.31-2.31 3.85-3.85 0.77-1.54 1.54-3.080 2.31-5.389l43.886-110.869h0.77l45.426 110.869c0.77 2.31 1.54 4.62 3.080 6.159 0.77 1.54 2.31 3.080 3.080 3.85 1.54 0.77 2.31 1.54 3.85 2.31s3.080 0.77 5.389 0.77h13.089c1.54 0 2.31 0 3.080-0.77 0.77 0 2.31-0.77 3.080-1.54s1.54-1.54 1.54-3.080c0.77-0.77 0.77-2.31 0.77-3.85v-141.666zM1927.122-4.716c0-0.77 0-1.54-0.77-2.31s-1.54-0.77-2.31-0.77c-0.77 0-3.080 0-4.62 0-2.31 0-3.85 0-4.62 0-1.54 0-2.31 0.77-2.31 0.77-0.77 0.77-0.77 1.54-0.77 2.31v10.779c-4.62-4.62-10.009-9.239-15.398-11.549-5.389-3.080-11.549-3.85-18.478-3.85-5.389 0-10.779 0.77-15.398 2.31s-8.469 3.85-11.549 6.159c-3.080 3.080-5.389 6.159-7.699 10.009-1.54 3.85-2.31 8.469-2.31 13.859 0 6.159 1.54 11.549 3.85 15.398 2.31 4.62 6.159 8.469 10.779 10.779 4.62 3.080 10.009 5.389 16.938 6.929s13.859 2.31 22.328 2.31h14.629v8.469c0 3.85-0.77 7.699-1.54 10.779s-2.31 6.159-3.85 7.699c-2.31 2.31-4.62 3.85-7.699 4.62s-6.929 1.54-11.549 1.54c-4.62 0-9.239-0.77-13.089-1.54s-6.929-2.31-10.009-3.85c-3.080-1.54-5.389-2.31-6.929-3.85-2.31-0.77-3.080-1.54-4.62-1.54-0.77 0-1.54 0-1.54 0.77-0.77 0-0.77 0.77-1.54 1.54 0 0.77-0.77 1.54-0.77 2.31s0 2.31 0 3.080 0 3.85 0.77 4.62c0 0.77 0.77 2.31 2.31 3.080 0.77 0.77 3.080 2.31 5.389 3.85s5.389 2.31 9.239 3.85c3.080 0.77 6.929 2.31 10.779 3.080s8.469 0.77 12.319 0.77c7.699 0 13.859-0.77 19.248-2.31s10.009-4.62 13.089-7.699c3.080-3.080 5.389-7.699 6.929-12.319s2.31-10.779 2.31-17.708v-72.373zM1907.104 43.789h-16.938c-5.389 0-10.009-0.77-13.859-1.54s-6.929-2.31-10.009-3.85c-2.31-1.54-4.62-3.85-5.389-6.159-1.54-2.31-1.54-5.389-1.54-8.469 0-5.389 1.54-10.009 5.389-13.089s8.469-4.62 14.629-4.62c5.389 0 10.009 1.54 14.629 3.85s9.239 6.929 13.859 12.319v21.558zM2054.159-4.716c0-0.77 0-1.54-0.77-1.54 0-0.77-0.77-0.77-1.54-0.77s-1.54-0.77-2.31-0.77c-0.77 0-2.31 0-3.85 0s-3.080 0-3.85 0c-0.77 0-2.31 0-3.080 0.77-0.77 0-1.54 0.77-1.54 0.77 0 0.77-0.77 0.77-0.77 1.54v13.859c-5.389-6.159-11.549-10.779-17.708-14.629-6.159-3.080-12.319-5.389-20.018-5.389s-14.629 1.54-20.018 4.62c-5.389 3.080-10.009 6.929-13.089 12.319s-6.159 11.549-7.699 18.478c-1.54 6.929-2.31 14.629-2.31 22.328 0 9.239 0.77 17.708 3.080 24.638 2.31 7.699 4.62 13.859 8.469 19.248s8.469 9.239 14.629 12.319c5.389 3.080 12.319 3.85 20.018 3.85 6.159 0 12.319-1.54 16.938-3.85 5.389-3.080 10.009-6.929 15.398-12.319v62.364c0 0.77 0 0.77 0.77 1.54 0 0.77 0.77 0.77 1.54 1.54 0.77 0 1.54 0.77 3.080 0.77s3.080 0 4.62 0c2.31 0 3.85 0 4.62 0 1.54 0 2.31-0.77 3.080-0.77s1.54-0.77 1.54-1.54c0-0.77 0.77-0.77 0.77-1.54v-157.835zM2034.911 70.737c-5.389 6.929-10.779 11.549-15.398 15.398-4.62 3.080-10.009 5.389-15.398 5.389-4.62 0-9.239-1.54-12.319-3.85-3.85-2.31-6.159-5.389-8.469-9.239s-3.85-8.469-4.62-13.089c-0.77-4.62-1.54-10.009-1.54-14.629 0-5.389 0.77-10.779 1.54-16.168s2.31-10.009 4.62-13.859c2.31-3.85 4.62-6.929 8.469-9.239 3.080-2.31 7.699-3.85 13.089-3.85 2.31 0 5.389 0 7.699 0.77s4.62 1.54 7.699 3.85c2.31 1.54 5.389 3.85 7.699 6.159 3.080 2.31 5.389 6.159 8.469 10.009v42.346zM2181.967 53.029c0-3.080-0.77-5.389-2.31-6.929s-3.080-2.31-5.389-2.31h-70.063c0-6.159 0.77-11.549 1.54-16.168s3.080-8.469 6.159-12.319c3.080-3.080 6.159-6.159 10.779-7.699s10.009-3.080 16.168-3.080c5.389 0 10.009 0.77 13.859 1.54s7.699 1.54 10.009 3.080c3.080 0.77 5.389 2.31 6.929 3.080s3.080 1.54 4.62 1.54c0.77 0 0.77 0 1.54-0.77 0.77 0 0.77-0.77 0.77-1.54s0.77-1.54 0.77-2.31c0-0.77 0-2.31 0-3.85 0-0.77 0-1.54 0-2.31s0-1.54 0-2.31c0-0.77 0-0.77-0.77-1.54 0-0.77-0.77-0.77-0.77-1.54-0.77-0.77-1.54-0.77-3.85-2.31-2.31-0.77-4.62-2.31-8.469-3.080-3.080-0.77-7.699-1.54-11.549-2.31-4.62-0.77-9.239-0.77-14.629-0.77-8.469 0-16.168 1.54-23.098 3.85s-12.319 6.159-16.938 10.779c-4.62 4.62-7.699 10.779-10.009 18.478-2.31 6.929-3.080 15.398-3.080 25.408 0 9.239 1.54 17.708 3.85 24.638 2.31 7.699 6.159 13.859 10.009 18.478 4.62 5.389 10.009 9.239 16.168 11.549 6.159 3.080 13.089 3.85 21.558 3.85s15.398-1.54 21.558-3.85c6.159-2.31 10.779-6.159 14.629-10.779s6.929-10.009 8.469-16.168c1.54-6.159 2.31-12.319 2.31-20.018v-2.31zM2161.949 59.188c0 10.009-2.31 18.478-6.929 23.868-4.62 6.159-12.319 8.469-21.558 8.469-4.62 0-9.239-0.77-13.089-3.080-3.85-1.54-6.929-3.85-9.239-6.929s-4.62-6.159-5.389-10.779c-1.54-3.85-2.31-8.469-2.31-12.319h58.514zM2351.35 35.32c0-6.929-1.54-13.859-3.85-19.248s-6.159-10.009-10.779-14.629c-4.62-3.85-10.009-6.929-16.938-8.469-6.159-2.31-13.089-3.080-20.788-3.080-5.389 0-10.009 0.77-14.629 1.54s-8.469 2.31-11.549 3.080c-3.080 1.54-6.159 2.31-8.469 3.85s-3.85 2.31-4.62 3.080c-0.77 0.77-1.54 2.31-2.31 3.85s-0.77 3.080-0.77 6.159c0 1.54 0 3.080 0 4.62 0 0.77 0.77 2.31 0.77 3.080s0.77 1.54 1.54 1.54c0.77 0 0.77 0.77 1.54 0.77s2.31-0.77 4.62-2.31c2.31-1.54 4.62-3.080 7.699-4.62s6.929-3.080 11.549-4.62c4.62-1.54 10.009-2.31 15.398-2.31 4.62 0 8.469 0.77 12.319 1.54 3.85 1.54 6.929 3.080 9.239 5.389s4.62 4.62 6.159 7.699c1.54 3.080 2.31 6.929 2.31 10.779 0 4.62-0.77 7.699-3.080 10.779s-4.62 6.159-7.699 8.469c-3.080 2.31-6.929 4.62-10.779 6.159-3.85 2.31-8.469 3.85-13.089 6.159s-8.469 4.62-12.319 6.929c-3.85 2.31-7.699 5.389-10.779 8.469s-6.159 6.929-7.699 11.549c-2.31 4.62-3.080 10.009-3.080 16.168s1.54 12.319 3.85 16.938c2.31 5.389 5.389 9.239 10.009 12.319 3.85 3.080 9.239 6.159 14.629 7.699s11.549 2.31 18.478 2.31c3.080 0 6.929 0 10.009-0.77s6.929-1.54 10.009-2.31c3.080-0.77 5.389-2.31 8.469-3.080 2.31-1.54 3.85-2.31 4.62-3.080s1.54-1.54 1.54-1.54c0-0.77 0.77-0.77 0.77-1.54s0-1.54 0-2.31c0-0.77 0-2.31 0-3.85s0-2.31 0-3.85c0-0.77 0-2.31-0.77-3.080 0-0.77-0.77-1.54-0.77-1.54-0.77 0-0.77-0.77-1.54-0.77s-2.31 0.77-3.85 1.54c-1.54 0.77-3.85 2.31-6.929 3.85-2.31 1.54-6.159 2.31-9.239 3.85-3.85 0.77-7.699 1.54-12.319 1.54s-7.699-0.77-10.779-1.54c-3.080-0.77-6.159-2.31-7.699-4.62-2.31-1.54-3.85-3.85-4.62-6.929-0.77-2.31-1.54-5.389-1.54-8.469 0-4.62 0.77-7.699 3.080-10.779s4.62-6.159 7.699-8.469c3.080-2.31 6.929-4.62 11.549-6.159 3.85-2.31 8.469-3.85 13.089-6.159s8.469-3.85 13.089-6.929c3.85-2.31 7.699-5.389 11.549-8.469 3.080-3.080 6.159-6.929 7.699-11.549-0.77-3.080 0-8.469 0-14.629zM2399.856 138.49c0-4.62-0.77-7.699-2.31-9.239s-4.62-2.31-9.239-2.31c-4.62 0-7.699 0.77-9.239 2.31s-2.31 4.62-2.31 9.239c0 4.62 0.77 7.699 2.31 9.239s4.62 2.31 9.239 2.31c4.62 0 7.699-0.77 9.239-2.31 1.54-2.31 2.31-5.389 2.31-9.239zM2397.546-4.716c0-0.77 0-1.54-0.77-1.54 0-0.77-0.77-0.77-1.54-0.77s-1.54-0.77-3.080-0.77c-1.54 0-3.080 0-4.62 0s-3.85 0-4.62 0c-1.54 0-2.31 0.77-3.080 0.77s-1.54 0.77-1.54 0.77c0 0.77-0.77 0.77-0.77 1.54v107.020c0 0.77 0 0.77 0.77 1.54 0 0.77 0.77 0.77 1.54 1.54 0.77 0 1.54 0.77 3.080 0.77s3.080 0 4.62 0c2.31 0 3.85 0 4.62 0 1.54 0 2.31-0.77 3.080-0.77s1.54-0.77 1.54-1.54c0-0.77 0.77-0.77 0.77-1.54v-107.020zM2592.337-4.716c0-0.77 0-1.54-0.77-1.54 0-0.77-0.77-0.77-1.54-0.77s-1.54-0.77-3.080-0.77c-1.54 0-3.080 0-4.62 0-2.31 0-3.85 0-4.62 0-1.54 0-2.31 0.77-3.080 0.77s-1.54 0.77-1.54 0.77c0 0.77-0.77 0.77-0.77 1.54v64.674c0 4.62-0.77 8.469-1.54 12.319s-2.31 6.929-3.85 9.239c-1.54 2.31-3.85 4.62-6.929 6.159-2.31 1.54-6.159 2.31-9.239 2.31-4.62 0-9.239-1.54-13.859-5.389s-9.239-8.469-15.398-15.398v-74.683c0-0.77 0-1.54-0.77-1.54 0-0.77-0.77-0.77-1.54-0.77s-1.54-0.77-3.080-0.77c-1.54 0-3.080 0-4.62 0s-3.080 0-4.62 0c-1.54 0-2.31 0.77-3.080 0.77s-1.54 0.77-1.54 0.77c0 0.77-0.77 0.77-0.77 1.54v64.674c0 4.62-0.77 8.469-1.54 12.319s-2.31 6.929-3.85 9.239c-1.54 2.31-3.85 4.62-6.929 6.159-2.31 1.54-6.159 2.31-9.239 2.31-4.62 0-9.239-1.54-13.859-5.389s-9.239-8.469-14.629-15.398v-74.683c0-0.77 0-1.54-0.77-1.54 0-0.77-0.77-0.77-1.54-0.77s-1.54-0.77-3.080-0.77c-1.54 0-3.080 0-4.62 0s-3.85 0-4.62 0c-1.54 0-2.31 0.77-3.080 0.77s-1.54 0.77-1.54 0.77c0 0.77-0.77 0.77-0.77 1.54v107.020c0 0.77 0 1.54 0 1.54 0 0.77 0.77 0.77 1.54 1.54 0.77 0 1.54 0.77 3.080 0.77 0.77 0 2.31 0 4.62 0 1.54 0 3.080 0 4.62 0 0.77 0 2.31 0 2.31-0.77 0.77 0 0.77-0.77 1.54-1.54 0-0.77 0.77-0.77 0.77-1.54v-13.859c6.159 6.929 11.549 11.549 17.708 14.629 5.389 3.080 11.549 4.62 16.938 4.62 4.62 0 8.469-0.77 11.549-1.54 3.85-0.77 6.929-2.31 9.239-4.62 2.31-1.54 4.62-3.85 6.929-6.929 1.54-2.31 3.85-5.389 4.62-8.469 3.85 3.85 6.929 6.929 10.009 10.009 3.080 2.31 6.159 4.62 9.239 6.159s6.159 3.080 8.469 3.85c3.080 0.77 5.389 0.77 8.469 0.77 6.929 0 12.319-1.54 17.708-3.85 4.62-2.31 8.469-5.389 11.549-10.009 3.080-3.85 4.62-8.469 6.159-13.859s1.54-10.779 1.54-16.938v-65.444zM2726.304 50.719c0-9.239-0.77-17.708-3.080-25.408s-4.62-13.859-9.239-19.248c-3.85-5.389-8.469-9.239-14.629-12.319s-12.319-3.85-20.018-3.85c-3.080 0-6.159 0-8.469 0.77s-5.389 1.54-7.699 3.080c-2.31 1.54-5.389 3.080-7.699 5.389s-5.389 4.62-7.699 6.929v-53.125c0-0.77 0-1.54-0.77-1.54 0-0.77-0.77-0.77-1.54-1.54s-1.54-0.77-3.080-0.77c-1.54 0-3.080 0-4.62 0s-3.85 0-4.62 0c-1.54 0-2.31 0.77-3.080 0.77s-1.54 0.77-1.54 1.54c0 0.77-0.77 0.77-0.77 1.54v149.365c0 0.77 0 1.54 0 1.54 0 0.77 0.77 0.77 1.54 0.77s1.54 0.77 3.080 0.77c0.77 0 2.31 0 3.85 0s3.080 0 3.85 0c0.77 0 2.31 0 2.31-0.77s1.54-0.77 1.54-0.77c0-0.77 0.77-0.77 0.77-1.54v-14.629c3.080 3.080 6.159 6.159 9.239 8.469s6.159 4.62 9.239 6.159c3.080 1.54 6.159 3.080 9.239 3.85s6.929 1.54 10.009 1.54c7.699 0 14.629-1.54 20.018-4.62s10.009-6.929 13.089-12.319c3.080-5.389 6.159-11.549 7.699-18.478 2.31-6.929 3.080-13.859 3.080-21.558zM2706.286 48.409c0 5.389-0.77 10.779-1.54 16.168s-2.31 10.009-4.62 13.859c-2.31 3.85-4.62 6.929-8.469 9.239-3.080 2.31-7.699 3.85-13.089 3.85-2.31 0-5.389 0-7.699-0.77s-4.62-2.31-7.699-3.85c-2.31-1.54-5.389-3.85-7.699-6.159-3.080-2.31-5.389-6.159-8.469-10.009v-42.346c5.389-6.929 10.779-11.549 15.398-15.398s10.009-5.389 15.398-5.389c4.62 0 9.239 1.54 13.089 3.85s6.159 5.389 8.469 9.239c2.31 3.85 3.85 8.469 4.62 13.089 1.54 4.62 2.31 9.239 2.31 14.629zM2775.579-4.716c0-0.77 0-1.54-0.77-1.54 0-0.77-0.77-0.77-1.54-0.77s-1.54-0.77-3.080-0.77c-1.54 0-3.080 0-4.62 0s-3.85 0-4.62 0c-1.54 0-2.31 0.77-3.080 0.77s-1.54 0.77-1.54 0.77c0 0.77-0.77 0.77-0.77 1.54v158.605c0 0.77 0 1.54 0.77 1.54 0 0.77 0.77 0.77 1.54 1.54 0.77 0 1.54 0.77 3.080 0.77s3.080 0 4.62 0c2.31 0 3.85 0 4.62 0 1.54 0 2.31-0.77 3.080-0.77s1.54-0.77 1.54-1.54c0-0.77 0.77-0.77 0.77-1.54v-158.605zM2902.617 53.029c0-3.080-0.77-5.389-2.31-6.929s-3.080-2.31-5.389-2.31h-70.063c0-6.159 0.77-11.549 1.54-16.168 1.54-4.62 3.080-8.469 6.159-12.319 3.080-3.080 6.159-6.159 10.779-7.699s10.009-3.080 16.168-3.080c5.389 0 10.009 0.77 13.859 1.54s7.699 1.54 10.009 3.080c3.080 0.77 5.389 2.31 6.929 3.080s3.080 1.54 4.62 1.54c0.77 0 0.77 0 1.54-0.77 0.77 0 0.77-0.77 0.77-1.54s0.77-1.54 0.77-2.31c0-0.77 0-2.31 0-3.85 0-0.77 0-1.54 0-2.31s0-1.54 0-2.31c0-0.77 0-0.77-0.77-1.54 0-0.77-0.77-0.77-0.77-1.54-0.77-0.77-1.54-0.77-3.85-2.31-2.31-0.77-4.62-2.31-8.469-3.080-3.080-0.77-7.699-1.54-11.549-2.31-4.62-0.77-9.239-0.77-14.629-0.77-8.469 0-16.168 1.54-23.098 3.85s-12.319 6.159-16.938 10.779c-4.62 4.62-7.699 10.779-10.009 18.478-2.31 6.929-3.080 15.398-3.080 25.408 0 9.239 1.54 17.708 3.85 24.638 2.31 7.699 6.159 13.859 10.009 18.478 4.62 5.389 10.009 9.239 16.168 11.549 6.159 3.080 13.089 3.85 21.558 3.85s15.398-1.54 21.558-3.85c6.159-2.31 10.779-6.159 14.629-10.779s6.929-10.009 8.469-16.168c1.54-6.159 2.31-12.319 2.31-20.018v-2.31zM2883.368 59.188c0 10.009-2.31 18.478-6.929 23.868-4.62 6.159-12.319 8.469-21.558 8.469-4.62 0-9.239-0.77-13.089-3.080-3.85-1.54-6.929-3.85-9.239-6.929s-4.62-6.159-5.389-10.779c-1.54-3.85-2.31-8.469-2.31-12.319h58.514zM1791.615 926.123c-686.003 0-1306.562-130.117-1754.659-340.307 448.096-209.42 1068.656-339.537 1754.659-339.537s1306.562 130.117 1754.659 340.307c-448.866 209.42-1069.426 339.537-1754.659 339.537zM859.236 655.11c0-15.398-2.31-27.717-6.929-36.186s-10.009-13.859-16.168-16.168c3.080-0.77 7.699-3.85 13.089-10.009 6.159-6.929 9.239-16.168 10.009-28.487v-131.657l-62.364 47.735v72.373c0 10.009-2.31 16.168-5.389 20.018s-8.469 5.389-15.398 6.159h-92.391v-98.55h-62.364v221.738h197.101c12.319 0 22.328-3.85 30.027-12.319 6.929-8.469 10.779-19.248 10.779-30.797v-3.85zM1114.851 524.223c0-13.089-6.159-23.868-17.708-32.337-11.549-7.699-25.408-12.319-41.576-12.319h-137.817c-13.089 0.77-23.098 3.85-30.027 10.779s-10.779 17.708-10.779 31.567v93.931c0 14.629 5.389 25.408 16.938 33.877s25.408 12.319 42.346 12.319h138.586c13.089 0 23.098-4.62 30.027-12.319s10.779-17.708 10.779-30.027v-95.471zM1370.466 524.223c0-13.089-6.159-23.868-17.708-32.337-11.549-7.699-25.408-12.319-41.576-12.319h-179.392v358.015l62.364-46.965v-128.577h134.737c11.549-0.77 20.788-4.62 28.487-12.319s11.549-16.938 11.549-28.487v-97.011zM1626.081 524.223c0-1.54 0-3.85-0.77-5.389v0l-62.364 32.337v60.824h-113.179v-83.922h58.514l83.152-43.886c-1.54-0.77-3.85-1.54-5.389-1.54-2.31-0.77-4.62-0.77-6.929-1.54-0.77 0-2.31 0-3.080-0.77-3.080 0-6.159-0.77-9.239-0.77h-137.817c-13.089 0.77-23.098 3.85-30.027 10.779s-10.779 17.708-10.779 31.567v93.931c0 14.629 5.389 25.408 16.938 33.877s25.408 12.319 42.346 12.319h138.586c13.089 0 23.098-4.62 30.027-12.319s10.779-17.708 10.779-30.027v-95.471zM1946.37 350.989l-62.364 32.337v228.668h-57.744v-131.657h-62.364v131.657h-57.744v-134.737l-62.364 33.107v151.675h261.774c13.089-0.77 23.868-5.389 30.027-12.319 6.929-7.699 10.009-17.708 10.009-30.027v-268.704zM2201.985 480.337h-178.623c-16.168 0-30.027 3.85-41.576 12.319s-17.708 18.478-17.708 32.337v32.337c0 11.549 3.85 20.788 11.549 27.717 7.699 7.699 17.708 11.549 29.257 12.319h135.507v14.629h-157.065v50.045h160.144c16.938 0 30.797-3.85 41.576-12.319s16.938-20.018 16.938-33.877v-135.507zM2342.111 611.994h-59.284v-83.922h59.284v-47.735h-80.842c-11.549 0-21.558 3.080-29.257 10.009-7.699 6.159-11.549 17.708-12.319 33.107v215.579l62.364-36.186v-40.036h59.284v-50.815zM2419.104 482.647c-16.168 0-30.027 3.85-41.576 12.319s-17.708 18.478-17.708 32.337v93.931c0 13.089 3.85 23.868 11.549 30.797s17.708 11.549 29.257 11.549h137.817c16.938 0 30.797-3.85 42.346-12.319 10.779-8.469 16.938-20.018 16.938-33.877v-65.444h-174.773v-21.558h234.827l62.364-47.735h-301.041zM2918.015 549.63v-87.002h-58.514v87.002h-87.771v60.054h87.771v87.002h58.514v-87.002h88.541v-60.054h-88.541zM683.693 625.853h101.63c3.080 0 6.159 0.77 8.469 3.080s3.080 4.62 3.080 9.239v13.859h-113.179v-26.177zM1194.923 613.534h113.179v-85.462h-113.179v85.462zM962.406 513.444l89.311 57.744-89.311 57.744zM2422.183 614.304h112.409v-14.629h-112.409v14.629zM2027.212 549.63h113.179v-21.558h-113.179v21.558z" />
<glyph unicode="&#x53;" glyph-name="sync" data-tags="sync" d="M510.72 193.28c-2.56 2.56-5.12 3.84-8.96 3.84-2.56 0-6.4-1.28-8.96-3.84-5.12-5.12-5.12-12.8 0-16.64l135.68-135.68 135.68 135.68c5.12 5.12 5.12 12.8 0 16.64-5.12 5.12-12.8 5.12-16.64 0l-106.24-106.24v213.76c0 6.4-5.12 11.52-12.8 11.52-6.4 0-11.52-5.12-11.52-11.52v-213.76l-106.24 106.24zM550.4 386.56c2.56-2.56 5.12-3.84 8.96-3.84 2.56 0 6.4 1.28 8.96 3.84 5.12 5.12 5.12 12.8 0 16.64l-135.68 135.68-135.68-135.68c-5.12-5.12-5.12-12.8 0-16.64 5.12-5.12 12.8-5.12 16.64 0l106.24 106.24v-213.76c0-6.4 5.12-11.52 12.8-11.52 6.4 0 11.52 5.12 11.52 11.52v213.76l106.24-106.24zM628.48 320c-10.24 0-17.92-7.68-17.92-17.92v-199.68l-94.72 94.72c-3.84 3.84-7.68 5.12-12.8 5.12s-8.96-1.28-12.8-5.12c-3.84-3.84-5.12-7.68-5.12-12.8s2.56-8.96 5.12-12.8l140.8-140.8 5.12 3.84 135.68 135.68c7.68 7.68 7.68 19.2 0 25.6-3.84 3.84-7.68 5.12-12.8 5.12s-8.96-2.56-12.8-5.12l-98.56-93.44v198.4c0 10.24-8.96 19.2-19.2 19.2v0zM432.64 547.84l-5.12-3.84-135.68-135.68c-7.68-7.68-7.68-19.2 0-25.6 3.84-3.84 7.68-5.12 12.8-5.12s8.96 2.56 12.8 5.12l94.72 94.72v-198.4c0-10.24 8.96-17.92 19.2-17.92s17.92 7.68 17.92 17.92v198.4l94.72-94.72c3.84-3.84 7.68-5.12 12.8-5.12s8.96 1.28 12.8 5.12c3.84 3.84 5.12 7.68 5.12 12.8s-2.56 8.96-5.12 12.8l-131.84 135.68-5.12 3.84zM796.16 688.64c-35.84 99.84-129.28 166.4-236.8 166.4-101.12 0-192-60.16-230.4-152.32-17.92 8.96-38.4 12.8-58.88 12.8-78.080 0-140.8-62.72-140.8-140.8-40.96-30.72-64-79.36-64-130.56 0-89.6 72.96-163.84 166.4-163.84 1.28 0 2.56 0 2.56 0 1.28 0 1.28 0 2.56 0h88.32c7.68 0 19.2 14.080 19.2 21.76s-6.4 14.080-14.080 14.080h-87.040c-1.28 0-2.56 0-3.84 0h-2.56c-71.68 0-130.56 58.88-130.56 130.56 0 43.52 21.76 83.2 56.32 107.52l6.4 6.4-1.28 11.52c0 60.16 48.64 108.8 108.8 108.8 20.48 0 39.68-5.12 57.6-16.64l15.36-8.96 6.4 16.64c28.16 88.32 110.080 147.2 202.24 147.2 94.72 0 179.2-62.72 208.64-156.16v-2.56l8.96-1.28c83.2-14.080 144.64-84.48 144.64-170.24 0-94.72-76.8-171.52-171.52-171.52h-14.080c-7.68 0-14.080-6.4-14.080-14.080s12.8-21.76 20.48-21.76h15.36c111.36 0 203.52 92.16 203.52 204.8 0 98.56-69.12 181.76-163.84 202.24z" />
<glyph unicode="&#x55;" glyph-name="upload" data-tags="upload" d="M546.56 509.44l-5.12-3.84-135.68-135.68c-7.68-7.68-7.68-19.2 0-25.6 3.84-3.84 7.68-5.12 12.8-5.12s8.96 2.56 12.8 5.12l94.72 94.72v-326.4c0-10.24 8.96-17.92 19.2-17.92s17.92 7.68 17.92 17.92v326.4l94.72-94.72c3.84-3.84 7.68-5.12 12.8-5.12s8.96 1.28 12.8 5.12c3.84 3.84 5.12 7.68 5.12 12.8s-2.56 8.96-5.12 12.8l-131.84 135.68-5.12 3.84zM796.16 688.64c-35.84 99.84-129.28 166.4-236.8 166.4-101.12 0-192-60.16-230.4-152.32-17.92 8.96-38.4 12.8-58.88 12.8-78.080 0-140.8-62.72-140.8-140.8-40.96-30.72-64-79.36-64-130.56 0-89.6 72.96-163.84 166.4-163.84 1.28 0 2.56 0 2.56 0 1.28 0 1.28 0 2.56 0h88.32c7.68 0 19.2 14.080 19.2 21.76s-6.4 14.080-14.080 14.080h-87.040c-1.28 0-2.56 0-3.84 0h-2.56c-71.68 0-130.56 58.88-130.56 130.56 0 43.52 21.76 83.2 56.32 107.52l6.4 6.4-1.28 11.52c0 60.16 48.64 108.8 108.8 108.8 20.48 0 39.68-5.12 57.6-16.64l15.36-8.96 6.4 16.64c28.16 88.32 110.080 147.2 202.24 147.2 94.72 0 179.2-62.72 208.64-156.16v-2.56l8.96-1.28c83.2-14.080 144.64-84.48 144.64-170.24 0-94.72-76.8-171.52-171.52-171.52h-14.080c-7.68 0-14.080-6.4-14.080-14.080s12.8-21.76 20.48-21.76h15.36c111.36 0 203.52 92.16 203.52 204.8 0 98.56-69.12 181.76-163.84 202.24z" />
<glyph unicode="&#x57;" glyph-name="wifi_error" data-tags="wifi_error" d="M970.24 385.28l-211.2 366.080c-1.28 3.84-5.12 5.12-8.96 5.12s-7.68-2.56-8.96-5.12l-212.48-367.36c-1.28-3.84-1.28-7.68 0-10.24s5.12-5.12 8.96-5.12h423.68c6.4 0 10.24 5.12 10.24 10.24 1.28 2.56 0 5.12-1.28 6.4zM613.12 427.52l136.96 248.32 135.68-248.32h-272.64zM729.6 611.84l6.4-87.040c0-6.4 6.4-11.52 14.080-11.52s14.080 5.12 14.080 11.52l6.4 87.040c0 6.4-12.8 11.52-20.48 11.52-7.68-1.28-20.48-6.4-20.48-11.52zM480 326.4c-55.040 0-99.84-44.8-99.84-99.84s44.8-99.84 99.84-99.84c55.040 0 99.84 44.8 99.84 99.84-1.28 55.040-46.080 99.84-99.84 99.84zM551.68 554.24c-103.68 21.76-215.040-7.68-294.4-87.040l-14.080-15.36-20.48-19.2c-24.32-24.32-24.32-64 0-88.32s64-24.32 88.32 0l34.56 34.56c38.4 38.4 88.32 57.6 138.24 58.88l67.84 116.48zM600.32 638.72l57.6 101.12c-185.6 64-400.64 23.040-550.4-121.6-1.28-1.28-2.56-1.28-2.56-2.56l-37.12-37.12c-21.76-21.76-21.76-57.6 0-80.64 21.76-21.76 57.6-23.040 80.64 0l37.12 37.12c0 0 0 0 1.28 1.28 112.64 108.8 271.36 143.36 413.44 102.4zM750.080 497.92c-14.080 0-25.6-11.52-25.6-25.6s11.52-25.6 25.6-25.6 25.6 11.52 25.6 25.6c0 14.080-11.52 25.6-25.6 25.6z" />
<glyph unicode="&#x58;" glyph-name="addnote" data-tags="addnote" d="M512 921.6c-261.12 0-473.6-212.48-473.6-473.6s212.48-473.6 473.6-473.6 473.6 212.48 473.6 473.6c0 261.12-212.48 473.6-473.6 473.6zM483.84 181.76h-220.16c-19.2 0-33.28 15.36-33.28 33.28v491.52c0 19.2 15.36 33.28 33.28 33.28h483.84c19.2 0 33.28-15.36 33.28-33.28v-243.2h-25.6v227.84c0 17.92-6.4 24.32-24.32 24.32h-450.56c-17.92 0-24.32-6.4-24.32-24.32v-459.52c0-17.92 6.4-24.32 24.32-24.32h202.24v-25.6zM321.28 540.16h359.68c11.52 0 20.48-8.96 20.48-20.48s-8.96-20.48-20.48-20.48h-359.68c-11.52 0-20.48 8.96-20.48 20.48s8.96 20.48 20.48 20.48zM300.8 633.6c0 11.52 8.96 20.48 20.48 20.48h275.2c11.52 0 20.48-8.96 20.48-20.48s-8.96-20.48-20.48-20.48h-275.2c-11.52 0-20.48 8.96-20.48 20.48zM512 386.56h-190.72c-11.52 0-20.48 8.96-20.48 20.48s8.96 20.48 20.48 20.48h190.72c11.52 0 20.48-8.96 20.48-20.48s-8.96-20.48-20.48-20.48zM780.8 281.6h-115.2v-115.2c0-6.4-5.12-12.8-12.8-12.8-6.4 0-12.8 5.12-12.8 12.8v115.2h-115.2c-6.4 0-12.8 5.12-12.8 12.8 0 6.4 5.12 12.8 12.8 12.8h115.2v115.2c0 6.4 5.12 12.8 12.8 12.8 6.4 0 12.8-5.12 12.8-12.8v-115.2h115.2c6.4 0 12.8-5.12 12.8-12.8 0-6.4-5.12-12.8-12.8-12.8z" />
<glyph unicode="&#x59;" glyph-name="you_fit" data-tags="you_fit" horiz-adv-x="1722" d="M681.891 594.618c-32.582 0-55.855-11.636-74.473-32.582-16.291-20.945-25.6-53.527-25.6-97.745 0-41.891 9.309-74.473 25.6-97.745 16.291-20.945 39.564-32.582 72.145-32.582 65.164 0 97.745 44.218 97.745 130.327 2.327 86.109-30.255 130.327-95.418 130.327zM1340.509 953.018h-1340.509v-1007.709h1340.509l377.018 502.691-377.018 505.018zM339.782 420.073v-148.945h-81.455v146.618l-128 237.382h88.436l79.127-158.255 81.455 158.255h88.436l-128-235.055zM816.873 317.673c-32.582-34.909-76.8-51.2-134.982-51.2s-104.727 16.291-134.982 51.2c-32.582 34.909-46.545 83.782-46.545 146.618 0 65.164 16.291 114.036 46.545 146.618 32.582 34.909 76.8 51.2 137.309 51.2s104.727-16.291 134.982-51.2c30.255-34.909 46.545-83.782 46.545-146.618 0-65.164-16.291-114.036-48.873-146.618zM1259.055 406.109c0-27.927-6.982-53.527-18.618-74.473s-30.255-37.236-55.855-48.873c-23.273-11.636-53.527-16.291-86.109-16.291-48.873 0-88.436 11.636-116.364 37.236s-41.891 60.509-41.891 104.727v246.691h83.782v-235.055c0-30.255 6.982-51.2 18.618-65.164s32.582-20.945 58.182-20.945c25.6 0 46.545 6.982 58.182 20.945s18.618 34.909 18.618 65.164v235.055h81.455v-249.018z" />
<glyph unicode="&#x5a;" glyph-name="Rupees" data-tags="Rupees" d="M801.28 719.36h-117.76c-7.68 38.4-23.040 71.68-43.52 99.84h186.88l-51.2 115.2h-655.36l51.2-135.68h151.040c97.28 0 158.72-25.6 184.32-76.8h-309.76l51.2-115.2h268.8c-10.24-38.4-33.28-66.56-71.68-87.040-35.84-20.48-87.040-30.72-145.92-30.72h-76.8c-5.12 0-10.24-2.56-15.36-7.68-2.56-2.56-5.12-7.68-5.12-12.8v-87.040c0-5.12 2.56-10.24 5.12-15.36 89.6-94.72 202.24-225.28 343.040-394.24 5.12-5.12 10.24-7.68 17.92-7.68h181.76c0 0-268.8 322.56-345.6 404.48 79.36 10.24 140.8 33.28 189.44 76.8 48.64 40.96 79.36 94.72 89.6 161.28h166.4l-48.64 112.64z" />
<glyph unicode="&#x5c;" glyph-name="Assessmentpen" data-tags="Assessment pen" d="M234.906 183.014c1.421 0 2.854 0.397 4.083 1.178l75.046 47.373c0.973 0.627 1.83 1.459 2.47 2.509l0.32 0.538-80.64 49.050-0.358-0.589c-0.64-0.998-1.050-2.138-1.075-3.341l-7.501-88.397c-0.23-2.906 1.178-5.696 3.699-7.206 1.152-0.742 2.547-1.114 3.955-1.114zM567.040 646.349c3.968 6.528 1.856 14.989-4.634 18.931l-6.669 4.019 21.478 35.315c1.715 2.803 2.202 6.131 1.421 9.357-0.768 3.174-2.778 5.901-5.606 7.616l-22.669 13.786c-2.010 1.216-4.25 1.818-6.4 1.818-4.211 0-8.282-2.112-10.611-5.926l-21.44-35.302-6.656 4.045c-2.176 1.344-4.685 2.010-7.181 2.010-1.075 0-2.176-0.115-3.264-0.371-3.533-0.896-6.592-3.123-8.512-6.259l-236.48-389.274 80.653-48.973 236.57 389.21zM415.898 513.894l83.302 137.062c3.75 6.182 11.878 8.166 18.099 4.39 6.195-3.776 8.166-11.866 4.39-18.074l-83.277-137.037c-2.47-4.096-6.797-6.336-11.251-6.336-2.304 0-4.659 0.589-6.822 1.907-6.234 3.814-8.205 11.917-4.442 18.086zM228.71 167.104h568.077v-8.282h-568.077v8.282zM512 916.122c-258.125 0-468.122-209.997-468.122-468.122 0-258.112 209.997-468.122 468.122-468.122 258.112 0 468.122 210.010 468.122 468.122 0 258.125-210.010 468.122-468.122 468.122zM512-0.077c-247.027 0-448 201.037-448 448.077 0 247.066 200.973 448.064 448 448.064 247.002 0 448-200.998 448-448.064 0-247.040-200.998-448.077-448-448.077z" />
<glyph unicode="&#x61;" glyph-name="audio" data-tags="audio" d="M743.68 355.84v184.32c0 8.96-6.4 15.36-15.36 15.36s-15.36-6.4-15.36-15.36v-185.6c0-110.080-89.6-200.96-200.96-200.96-110.080 0-200.96 89.6-200.96 200.96v185.6c0 8.96-6.4 15.36-15.36 15.36s-15.36-6.4-15.36-15.36v-185.6c0-122.88 96-222.72 216.32-231.68v-93.44h-139.52c-8.96 0-15.36-6.4-15.36-15.36s6.4-15.36 15.36-15.36h308.48c8.96 0 15.36 6.4 15.36 15.36s-6.4 15.36-15.36 15.36h-138.24v93.44c120.32 8.96 216.32 110.080 216.32 232.96v0zM512 216.32c76.8 0 139.52 62.72 139.52 139.52v400.64c0 76.8-62.72 139.52-139.52 139.52s-139.52-62.72-139.52-139.52v-401.92c0-75.52 62.72-138.24 139.52-138.24v0zM404.48 756.48c0 60.16 48.64 107.52 107.52 107.52 60.16 0 107.52-48.64 107.52-107.52v-401.92c0-60.16-48.64-107.52-107.52-107.52-60.16 0-107.52 48.64-107.52 107.52v401.92zM441.6 544c3.84 0 7.68 3.84 7.68 7.68v184.32c0 40.96 33.28 74.24 74.24 74.24 3.84 0 7.68 3.84 7.68 7.68s-3.84 7.68-7.68 7.68c-49.92 0-89.6-40.96-89.6-89.6v-185.6c0-3.84 3.84-6.4 7.68-6.4v0z" />
<glyph unicode="&#x62;" glyph-name="mybag" data-tags="mybag" d="M577.28 419.84h93.44v-33.28h-93.44v33.28zM642.56 208.64h184.32v-33.28h-184.32v33.28zM642.56 128c0-10.24-1.28-19.2-5.12-28.16h189.44v33.28h-184.32v-5.12zM826.88 284.16h-189.44c2.56-8.96 3.84-17.92 3.84-28.16v-6.4h184.32v34.56zM750.080 544h-249.6v-198.4h17.92v176.64h231.68v-147.2h140.8v-357.12h-372.48v20.48h-17.92v-38.4h413.44v380.16l-163.84 163.84zM770.56 395.52v101.12l101.12-101.12h-101.12zM624.64 128v128c0 38.4-30.72 69.12-69.12 69.12h-268.8c-38.4 0-69.12-30.72-69.12-69.12v-128c0-38.4 30.72-69.12 69.12-69.12h268.8c38.4 0 69.12 30.72 69.12 69.12zM360.96 106.24v171.52l121.6-84.48-121.6-87.040zM110.080 115.2h89.6c0 3.84-1.28 8.96-1.28 12.8v128c0 48.64 39.68 88.32 88.32 88.32h174.080v235.52h266.24v284.16h-616.96v-748.8zM171.52 896l-60.16-32h34.56l38.4 23.040h565.76v-311.040l8.96 3.84v316.16zM110.080 864v0h1.28z" />
<glyph unicode="&#x63;" glyph-name="collabration" data-tags="collabration" d="M581.12 424.96c-61.44 5.12-92.16 153.6-92.16 153.6s58.88-35.84 122.88-46.080c64-12.8 94.72 10.24 81.92 30.72-7.68 12.8-53.76 61.44-84.48 117.76-10.24 17.92-7.68 84.48-7.68 112.64s-33.28 84.48-84.48 84.48c-48.64 0-230.4 2.56-314.88 2.56-81.92 0-133.12-53.76-133.12-99.84 0 0 0-289.28 0-353.28s-5.12-171.52 28.16-204.8c33.28-30.72 209.92-66.56 209.92-66.56s-97.28 92.16-97.28 133.12c0 17.92-7.68 15.36 66.56 15.36 35.84 0 245.76 0 271.36 0 38.4 0 30.72 53.76 30.72 66.56s43.52 12.8 46.080 20.48c2.56 10.24 17.92 30.72-43.52 33.28zM465.92 660.48c5.12 7.68 7.68 17.92 7.68 25.6 0 25.6-20.48 48.64-48.64 48.64-25.6 0-48.64-20.48-48.64-48.64 0-12.8 5.12-25.6 15.36-35.84-20.48 10.24-33.28 30.72-33.28 53.76 0 33.28 28.16 61.44 61.44 61.44s61.44-28.16 61.44-61.44c5.12-17.92-2.56-33.28-15.36-43.52zM913.92 227.84c0 30.72-12.8 43.52-56.32 43.52-35.84 0-115.2 0-135.68 0s-35.84-25.6-35.84-35.84c0-12.8 2.56-40.96-2.56-48.64-12.8-23.040-33.28-46.080-35.84-51.2-5.12-10.24 15.36-17.92 43.52-17.92 38.4 0 51.2 15.36 51.2 15.36s-17.92-46.080-46.080-48.64-20.48-10.24-17.92-15.36c2.56-2.56 20.48-2.56 20.48-10.24 0-5.12-2.56-28.16 12.8-28.16 12.8 0 107.52 0 122.88 0 23.040 0 23.040-10.24 23.040-17.92 0-17.92-43.52-46.080-43.52-46.080s76.8 15.36 89.6 30.72c15.36 15.36 12.8 48.64 12.8 76.8s-2.56 153.6-2.56 153.6zM788.48 151.040c-20.48 0-35.84 15.36-35.84 35.84 0 5.12 2.56 10.24 5.12 15.36 0-2.56 0-2.56 0-5.12 0-15.36 12.8-28.16 28.16-28.16s28.16 12.8 28.16 28.16c0 10.24-5.12 20.48-15.36 25.6 15.36-2.56 28.16-17.92 28.16-35.84-2.56-20.48-17.92-35.84-38.4-35.84zM913.92 711.68h-112.64c-23.040 0-40.96-17.92-40.96-40.96v-166.4l-48.64-48.64h202.24c23.040 0 40.96 17.92 40.96 40.96v174.080c0 20.48-17.92 40.96-40.96 40.96zM942.080 496.64c0-15.36-12.8-28.16-28.16-28.16h-171.52l30.72 30.72v171.52c0 15.36 12.8 28.16 28.16 28.16h112.64c15.36 0 28.16-12.8 28.16-28.16v-174.080zM565.76 174.080c0 20.48-15.36 35.84-35.84 35.84h-71.68c-20.48 0-35.84-15.36-35.84-35.84v-64c0-20.48 15.36-35.84 35.84-35.84h151.040l-43.52 43.52v56.32zM578.56 87.040h-120.32c-12.8 0-23.040 10.24-23.040 23.040v64c0 12.8 10.24 23.040 23.040 23.040h71.68c12.8 0 23.040-10.24 23.040-23.040v-61.44l25.6-25.6z" />
<glyph unicode="&#x64;" glyph-name="scheduler" data-tags="scheduler" d="M181.76 752.64v111.36c0 15.36 12.8 28.16 28.16 28.16s28.16-12.8 28.16-28.16v-111.36c0-15.36-12.8-28.16-28.16-28.16-15.36 1.28-28.16 12.8-28.16 28.16v0zM654.080 725.76c15.36 0 28.16 12.8 28.16 28.16v110.080c0 15.36-12.8 28.16-28.16 28.16s-28.16-12.8-28.16-28.16v-111.36c0-15.36 12.8-26.88 28.16-26.88v0zM958.72 226.56c0-122.88-99.84-221.44-221.44-221.44-122.88 0-221.44 99.84-221.44 221.44s98.56 221.44 221.44 221.44 221.44-99.84 221.44-221.44v0zM940.8 226.56c0 112.64-90.88 203.52-203.52 203.52s-203.52-90.88-203.52-203.52 90.88-203.52 203.52-203.52c112.64-1.28 203.52 90.88 203.52 203.52v0zM259.84 616.96h-92.16v-92.16h92.16v92.16zM167.68 387.84h92.16v92.16h-92.16c0 0 0-92.16 0-92.16zM305.92 526.080h90.88v92.16h-92.16v-92.16h1.28zM167.68 257.28h92.16v92.16h-92.16c0 0 0-92.16 0-92.16zM305.92 257.28h90.88v92.16h-92.16v-92.16h1.28zM444.16 389.12h92.16v92.16h-92.16v-92.16zM106.24 212.48v455.68h650.24v-163.84h42.24v220.16c0 34.56-26.88 62.72-61.44 62.72h-23.040v-28.16c0-30.72-25.6-56.32-56.32-56.32s-56.32 25.6-56.32 56.32v28.16h-339.2v-28.16c0-30.72-25.6-56.32-56.32-56.32s-56.32 25.6-56.32 56.32v28.16h-23.040c-33.28 0-61.44-28.16-61.44-62.72v-496.64c0-34.56 26.88-62.72 61.44-62.72h334.080v42.24h-349.44c-2.56 0-5.12 0-5.12 2.56v2.56zM535.040 526.080v92.16h-92.16v-92.16h92.16zM444.16 526.080h92.16v92.16h-92.16v-92.16zM673.28 526.080v92.16h-92.16v-92.16h92.16zM876.8 220.16h-131.84v130.56c0 10.24-8.96 19.2-19.2 19.2s-19.2-8.96-19.2-19.2v-151.040c0-10.24 8.96-19.2 19.2-19.2h151.040c10.24 0 19.2 8.96 19.2 19.2 0 11.52-8.96 20.48-19.2 20.48v0z" />
<glyph unicode="&#x65;" glyph-name="edit" data-tags="edit" d="M170.24 304.64l198.4-198.4 474.88 474.88-198.4 198.4-474.88-474.88zM684.8 660.48l-395.52-395.52-39.68 39.68 395.52 395.52 39.68-39.68zM313.6 81.92l-239.36-71.68 71.68 239.36 167.68-167.68zM883.2 620.8l-198.4 198.4 66.56 66.56 198.4-198.4-66.56-66.56z" />
<glyph unicode="&#x66;" glyph-name="french_ico" data-tags="french_ico" d="M878.080 753.92c-57.6 30.72-250.88 142.080-291.84 166.4s-110.080 25.6-153.6 1.28c-42.24-24.32-294.4-171.52-316.16-184.32-38.4-23.040-56.32-66.56-55.040-103.68 0-39.68-1.28-353.28 0-377.6 2.56-33.28 6.4-65.28 46.080-89.6 33.28-19.2 303.36-170.24 337.92-190.72 32-19.2 85.76-28.16 135.68-2.56 65.28 34.56 284.16 160 317.44 179.2 46.080 28.16 67.84 47.36 67.84 103.68 0 0 0 323.84 0 377.6-2.56 53.76-30.72 89.6-88.32 120.32zM721.92 165.12h-419.84v29.44h30.72c11.52 15.36 42.24 56.32 71.68 115.2v0l10.24 19.2c16.64 35.84 32 67.84 42.24 113.92l2.56 14.080c1.28 3.84 1.28 7.68 2.56 11.52 8.96 51.2 15.36 85.76 20.48 131.84v6.4c6.4 60.16 8.96 96 8.96 129.28v6.4c0 14.080 0 23.040 1.28 28.16-1.28 1.28-3.84 3.84-5.12 5.12s-7.68 5.12-7.68 5.12v10.24h14.080v19.2c0 6.4 6.4 11.52 14.080 12.8v35.84h6.4v-35.84c7.68-1.28 14.080-6.4 14.080-12.8v-19.2h14.080v-10.24c0 0-6.4-3.84-7.68-6.4s-2.56-3.84-5.12-5.12c0-3.84 0-14.080 0-28.16v-6.4c1.28-32 3.84-67.84 8.96-129.28l1.28-6.4c5.12-46.080 10.24-80.64 20.48-131.84 0-3.84 1.28-7.68 2.56-11.52l2.56-14.080c10.24-44.8 25.6-76.8 42.24-113.92l10.24-19.2c29.44-58.88 60.16-99.84 71.68-115.2h32v-28.16zM538.88 421.12h-55.040c-7.68-38.4-17.92-62.72-28.16-92.16h111.36c-10.24 29.44-20.48 53.76-28.16 92.16zM532.48 464.64c-6.4 52.48-11.52 88.32-14.080 135.68h-11.52c-2.56-47.36-7.68-83.2-14.080-135.68 0-2.56-1.28-5.12-1.28-8.96h42.24c-1.28 3.84-1.28 6.4-1.28 8.96zM512 291.84c-37.12 0-71.68-17.92-90.88-44.8-12.8-25.6-24.32-43.52-30.72-52.48h243.2c-6.4 8.96-17.92 26.88-30.72 52.48-17.92 23.040-53.76 44.8-90.88 44.8z" />
<glyph unicode="&#x67;" glyph-name="group" data-tags="group" d="M556.8 510.72c17.92-2.56 35.84-8.96 55.040-16.64 19.2-8.96 38.4-20.48 57.6-35.84s34.56-35.84 48.64-61.44c14.080-24.32 24.32-49.92 33.28-75.52 7.68-25.6 14.080-48.64 17.92-70.4s6.4-39.68 7.68-55.040 1.28-26.88 2.56-32c-26.88-20.48-52.48-38.4-75.52-51.2s-51.2-24.32-81.92-35.84c-32-10.24-65.28-16.64-102.4-16.64s-71.68 5.12-103.68 15.36c-32 10.24-60.16 21.76-83.2 34.56-24.32 12.8-43.52 24.32-57.6 35.84s-23.040 17.92-25.6 20.48c-1.28 1.28-1.28 11.52 0 29.44s3.84 39.68 8.96 64c5.12 24.32 11.52 48.64 19.2 74.24s16.64 46.080 26.88 62.72c23.040 34.56 48.64 62.72 78.080 83.2s72.96 32 129.28 34.56c11.52 0 26.88-1.28 44.8-3.84zM615.68 584.96c-29.44-28.16-64-43.52-104.96-43.52s-75.52 14.080-103.68 43.52c-29.44 28.16-43.52 64-43.52 104.96s14.080 75.52 43.52 104.96c29.44 28.16 64 43.52 103.68 43.52 40.96 0 75.52-14.080 104.96-43.52 29.44-28.16 43.52-64 43.52-104.96 0-42.24-14.080-76.8-43.52-104.96zM832 341.76c19.2 0 37.12 6.4 51.2 20.48s20.48 30.72 20.48 49.92-6.4 37.12-20.48 49.92c-14.080 14.080-30.72 20.48-51.2 20.48-19.2 0-35.84-6.4-49.92-20.48s-20.48-30.72-20.48-49.92 6.4-37.12 20.48-49.92c12.8-14.080 29.44-20.48 49.92-20.48zM958.72 174.080c0 7.68-1.28 16.64-3.84 26.88-1.28 10.24-5.12 21.76-8.96 34.56s-8.96 24.32-15.36 35.84c-6.4 12.8-14.080 21.76-23.040 29.44s-17.92 12.8-28.16 17.92c-8.96 3.84-17.92 6.4-26.88 7.68s-15.36 2.56-21.76 2.56c-12.8 0-25.6-2.56-35.84-5.12 3.84-10.24 7.68-20.48 11.52-30.72 7.68-23.040 12.8-44.8 16.64-65.28s5.12-37.12 6.4-51.2 1.28-24.32 1.28-29.44c-15.36-11.52-30.72-23.040-44.8-32 14.080-3.84 29.44-6.4 46.080-6.4 17.92 0 34.56 2.56 49.92 7.68s28.16 11.52 39.68 16.64c12.8 7.68 25.6 15.36 38.4 25.6 0 2.56 0 7.68-1.28 15.36zM216.32 131.84c-14.080 10.24-21.76 16.64-23.040 17.92s-1.28 10.24 0 26.88 3.84 35.84 8.96 58.88c3.84 21.76 10.24 44.8 16.64 69.12 2.56 6.4 3.84 12.8 6.4 19.2-3.84 1.28-7.68 2.56-11.52 2.56-8.96 1.28-15.36 2.56-21.76 2.56-26.88-1.28-48.64-6.4-62.72-16.64s-26.88-23.040-38.4-40.96c-5.12-7.68-8.96-17.92-12.8-30.72s-6.4-24.32-8.96-35.84c-2.56-11.52-3.84-21.76-3.84-30.72-1.28-8.96 0-14.080 0-14.080 1.28-1.28 5.12-3.84 12.8-10.24 7.68-5.12 16.64-11.52 28.16-16.64 11.52-6.4 24.32-11.52 39.68-16.64s32-7.68 49.92-7.68c15.36 0 30.72 2.56 44.8 6.4-10.24 6.4-17.92 11.52-24.32 16.64zM192 341.76c19.2 0 37.12 6.4 51.2 20.48 1.28 1.28 1.28 2.56 2.56 2.56 3.84 5.12 6.4 10.24 10.24 15.36 5.12 10.24 7.68 20.48 7.68 32 0 19.2-6.4 37.12-20.48 49.92-14.080 14.080-30.72 20.48-51.2 20.48-19.2 0-35.84-6.4-49.92-20.48s-20.48-30.72-20.48-49.92 6.4-37.12 20.48-49.92c14.080-14.080 30.72-20.48 49.92-20.48z" />
<glyph unicode="&#x69;" glyph-name="notification" data-tags="notification" d="M441.6 29.44c20.48-20.48 43.52-29.44 70.4-29.44 28.16 0 51.2 10.24 70.4 29.44s29.44 42.24 29.44 70.4h-199.68c0-26.88 10.24-51.2 29.44-70.4v0zM938.24 177.92c-33.28 49.92-58.88 102.4-75.52 158.72s-32 136.96-46.080 241.92c-7.68 61.44-33.28 113.92-61.44 147.2-14.080 16.64-29.44 32-47.36 44.8-35.84 25.6-65.28 38.4-98.56 48.64-5.12 21.76-16.64 39.68-34.56 55.040-19.2 14.080-39.68 21.76-62.72 21.76s-43.52-7.68-61.44-21.76c-17.92-14.080-29.44-33.28-33.28-55.040-33.28-10.24-62.72-21.76-98.56-48.64-17.92-12.8-33.28-28.16-47.36-44.8-28.16-33.28-52.48-85.76-60.16-147.2-14.080-106.24-29.44-186.88-46.080-241.92-16.64-56.32-42.24-108.8-75.52-158.72-3.84-5.12-5.12-8.96-5.12-14.080 0-3.84 1.28-7.68 3.84-12.8 5.12-8.96 12.8-14.080 23.040-14.080h808.96c10.24 0 17.92 5.12 23.040 14.080 1.28 3.84 2.56 8.96 2.56 12.8-3.84 5.12-5.12 8.96-7.68 14.080v0zM154.88 189.44c28.16 48.64 49.92 101.12 64 158.72 15.36 56.32 28.16 131.84 40.96 224 11.52 80.64 47.36 130.56 93.44 161.28 32 21.76 60.16 33.28 92.16 39.68 11.52 2.56 19.2 12.8 19.2 24.32v1.28c0 24.32 21.76 44.8 46.080 44.8 25.6 0 46.080-20.48 46.080-44.8v-1.28c0-11.52 8.96-21.76 20.48-24.32 32-7.68 60.16-17.92 92.16-39.68 15.36-11.52 29.44-23.040 42.24-37.12 24.32-28.16 44.8-71.68 51.2-124.16 12.8-92.16 26.88-167.68 40.96-224 15.36-56.32 37.12-110.080 65.28-158.72 0 0-714.24 0-714.24 0z" />
<glyph unicode="&#x6a;" glyph-name="video" data-tags="video" d="M38.4 761.6h947.2v-628.48h-947.2v628.48zM136.96 609.28v71.68h-80.64v-71.68h80.64zM136.96 412.16v71.68h-80.64v-71.68h80.64zM136.96 215.040v71.68h-80.64v-71.68h80.64zM867.84 166.4v564.48h-711.68v-564.48h711.68zM967.68 609.28v70.4h-79.36v-70.4h79.36zM967.68 412.16v71.68h-79.36v-71.68h79.36zM967.68 215.040v71.68h-79.36v-71.68h79.36zM628.48 463.36l8.96-8.96c2.56-2.56 3.84-5.12 3.84-7.68s-1.28-5.12-3.84-7.68l-8.96-8.96-165.12-148.48c-8.96-7.68-17.92-12.8-24.32-12.8-8.96 0-14.080 3.84-17.92 12.8v316.16c2.56 11.52 8.96 17.92 17.92 20.48 6.4 1.28 15.36-2.56 23.040-8.96 8.96-7.68 15.36-12.8 19.2-17.92 8.96-8.96 23.040-19.2 39.68-34.56 16.64-14.080 33.28-28.16 48.64-42.24 16.64-14.080 35.84-30.72 58.88-51.2z" />
<glyph unicode="&#x6b;" glyph-name="pause" data-tags="pause" d="M433.92 70.4c0-23.040-19.2-42.24-42.24-42.24h-126.72c-23.040 0-42.24 19.2-42.24 42.24v759.040c0 23.040 19.2 42.24 42.24 42.24h126.72c23.040 0 42.24-19.2 42.24-42.24v-759.040zM801.28 70.4c0-23.040-19.2-42.24-42.24-42.24h-126.72c-23.040 0-42.24 19.2-42.24 42.24v759.040c0 23.040 19.2 42.24 42.24 42.24h126.72c23.040 0 42.24-19.2 42.24-42.24v-759.040z" />
<glyph unicode="&#x6c;" glyph-name="lock" data-tags="lock" d="M293.12 0h437.76c70.4 0 128 56.32 128 126.72v284.16c0 57.6-35.84 106.24-93.44 122.88v-1.28c0 126.72-101.12 231.68-227.84 231.68h-51.2c-126.72 0-230.4-103.68-230.4-231.68 0-16.64 14.080-30.72 30.72-30.72s30.72 14.080 30.72 32c0 92.16 75.52 168.96 168.96 168.96h51.2c92.16 0 166.4-76.8 166.4-168.96v6.4h-410.88c-70.4 0-128-57.6-128-128v-284.16c0-71.68 57.6-128 128-128v0zM797.44 128c0-37.12-29.44-66.56-66.56-66.56h-437.76c-37.12 0-66.56 29.44-66.56 66.56v281.6c0 37.12 29.44 66.56 66.56 66.56h437.76c37.12 0 66.56-29.44 66.56-66.56v-281.6z" />
<glyph unicode="&#x6d;" glyph-name="marathi_ico" data-tags="marathi_ico" d="M878.080 753.92c-57.6 30.72-250.88 142.080-291.84 166.4s-110.080 25.6-153.6 1.28c-42.24-24.32-294.4-171.52-316.16-184.32-38.4-23.040-56.32-66.56-55.040-103.68 0-39.68-1.28-353.28 0-377.6 2.56-33.28 6.4-65.28 46.080-89.6 33.28-19.2 303.36-170.24 337.92-190.72 32-19.2 85.76-28.16 135.68-2.56 65.28 34.56 284.16 160 317.44 179.2 46.080 28.16 67.84 47.36 67.84 103.68 0 0 0 323.84 0 377.6-2.56 53.76-30.72 89.6-88.32 120.32zM803.84 642.56h-80.64v-469.76l-58.88 42.24v203.52c-16.64-6.4-38.4-10.24-62.72-10.24-17.92 3.84-37.12 11.52-55.040 21.76l-25.6 19.2c6.4-7.68 12.8-19.2 19.2-34.56 10.24-25.6 15.36-52.48 15.36-81.92 0-33.28-11.52-60.16-34.56-79.36s-52.48-29.44-87.040-29.44c-44.8 0-84.48 23.040-121.6 70.4-25.6 33.28-48.64 76.8-67.84 130.56-15.36 44.8-23.040 69.12-20.48 72.96l20.48 7.68c-2.56-3.84-3.84-8.96-3.84-19.2 0-21.76 10.24-55.040 29.44-99.84 33.28-72.96 80.64-110.080 142.080-110.080 29.44 0 55.040 10.24 74.24 30.72 20.48 20.48 30.72 48.64 30.72 83.2 0 24.32-6.4 47.36-19.2 70.4l-19.2 25.6c-28.16-15.36-57.6-23.040-88.32-23.040l-33.28 53.76 67.84 12.8c44.8 17.92 66.56 43.52 66.56 76.8 0 12.8-3.84 23.040-10.24 29.44-10.24 10.24-28.16 15.36-53.76 15.36-15.36 0-37.12-5.12-64-16.64-21.76-10.24-33.28-17.92-37.12-21.76l-32 57.6c5.12 5.12 23.040 11.52 51.2 19.2 11.52 3.84 19.2 5.12 24.32 6.4s12.8 1.28 23.040 1.28c30.72 0 61.44-12.8 92.16-37.12 29.44-25.6 44.8-53.76 44.8-85.76 0-17.92-6.4-35.84-20.48-53.76-6.4-8.96-12.8-16.64-19.2-21.76 8.96-11.52 16.64-20.48 24.32-26.88 17.92-14.080 39.68-21.76 62.72-21.76 21.76 0 42.24 5.12 64 16.64l24.32 15.36v160h-89.6l-19.2 44.8h247.040v-44.8z" />
<glyph unicode="&#x6e;" glyph-name="note" data-tags="note" d="M64 897.28h896v-657.92l-263.68-238.080h-632.32v896zM922.88 241.92v618.24h-819.2v-820.48h590.080v202.24h229.12zM245.76 684.8v-69.12h532.48v69.12h-532.48zM245.76 506.88v-69.12h385.28v69.12h-385.28z" />
<glyph unicode="&#x70;" glyph-name="performance" data-tags="performance" d="M140.8 111.36h741.12v-24.32h-741.12v24.32zM951.040 755.2c-21.76 46.080-75.52 65.28-121.6 44.8-46.080-21.76-65.28-75.52-44.8-121.6 8.96-20.48 25.6-35.84 44.8-44.8l-76.8-295.68c-10.24 2.56-20.48 3.84-32 1.28-14.080-2.56-26.88-7.68-37.12-16.64l-133.12 93.44c7.68 14.080 11.52 30.72 8.96 47.36-6.4 39.68-43.52 66.56-81.92 60.16-39.68-6.4-66.56-43.52-60.16-81.92 1.28-5.12 2.56-10.24 3.84-15.36l-165.12-124.16c-11.52 8.96-24.32 12.8-38.4 11.52l-57.6 85.76c0 0 0 0 0 0 21.76 23.040 20.48 58.88-2.56 80.64s-58.88 20.48-80.64-2.56c-21.76-23.040-20.48-58.88 2.56-80.64 14.080-14.080 34.56-17.92 52.48-14.080l55.040-80.64c-2.56-1.28-5.12-3.84-6.4-6.4-21.76-23.040-20.48-58.88 2.56-80.64s58.88-20.48 80.64 2.56c15.36 15.36 19.2 38.4 12.8 57.6l163.84 124.16c15.36-14.080 37.12-20.48 58.88-17.92 10.24 1.28 20.48 5.12 28.16 11.52l135.68-96c-6.4-14.080-8.96-29.44-6.4-44.8 6.4-42.24 46.080-70.4 88.32-64s70.4 46.080 64 88.32c-2.56 19.2-12.8 35.84-26.88 47.36l78.080 302.080c15.36-1.28 30.72 1.28 46.080 7.68 46.080 21.76 66.56 76.8 44.8 121.6z" />
<glyph unicode="&#x71;" glyph-name="dummypic" data-tags="dummypic" d="M513.28 322.56c134.4 0 243.2 108.8 243.2 243.2s-108.8 243.2-243.2 243.2-243.2-108.8-243.2-243.2c0-134.4 108.8-243.2 243.2-243.2zM622.080 629.76c15.36 0 26.88-3.84 26.88-7.68s-11.52-7.68-26.88-7.68-26.88 3.84-26.88 7.68 11.52 7.68 26.88 7.68zM401.92 629.76c15.36 0 26.88-3.84 26.88-7.68s-11.52-7.68-26.88-7.68-26.88 3.84-26.88 7.68 11.52 7.68 26.88 7.68zM656.64 478.72c-26.88-52.48-80.64-88.32-143.36-88.32s-116.48 35.84-143.36 88.32c0 0 75.52-26.88 140.8-26.88 71.68 0 145.92 26.88 145.92 26.88zM793.6 234.24c-65.28 60.16-133.12 79.36-133.12 79.36-43.52-25.6-93.44-39.68-147.2-39.68-52.48 0-101.12 14.080-144.64 38.4-81.92-34.56-149.76-96-190.72-174.080-1.28 1.28 34.56-49.92 102.4-87.040 62.72-33.28 126.72-65.28 231.68-65.28 101.12 0 194.56 42.24 249.6 78.080 28.16 17.92 103.68 83.2 103.68 83.2 0-1.28-28.16 47.36-71.68 87.040zM512 897.28c248.32 0 449.28-200.96 449.28-449.28s-200.96-449.28-449.28-449.28-449.28 200.96-449.28 449.28 200.96 449.28 449.28 449.28zM512 910.080c-254.72 0-462.080-207.36-462.080-462.080s207.36-462.080 462.080-462.080 462.080 207.36 462.080 462.080-207.36 462.080-462.080 462.080v0z" />
<glyph unicode="&#x73;" glyph-name="search" data-tags="search" d="M933.12 35.84c23.040 28.16 15.36 75.52-17.92 107.52l-90.88 88.32c-25.6 24.32-58.88 33.28-85.76 25.6l-30.72 30.72c57.6 62.72 93.44 147.2 93.44 238.080 0 197.12-162.56 355.84-362.24 355.84s-362.24-158.72-362.24-355.84c0-197.12 162.56-355.84 362.24-355.84 85.76 0 165.12 29.44 227.84 79.36l32-32c-8.96-28.16 1.28-62.72 28.16-88.32l90.88-88.32c32-30.72 76.8-37.12 104.96-16.64 2.56 1.28 5.12 2.56 6.4 5.12s2.56 3.84 3.84 6.4zM439.040 225.28c-168.96 0-305.92 134.4-305.92 300.8s136.96 300.8 305.92 300.8c168.96 0 305.92-134.4 305.92-300.8s-136.96-300.8-305.92-300.8z" />
<glyph unicode="&#x74;" glyph-name="Algebra_ico" data-tags="Algebra_ico" d="M878.080 753.92c-57.6 30.72-250.88 142.080-291.84 166.4s-110.080 25.6-153.6 1.28c-42.24-24.32-294.4-171.52-316.16-184.32-38.4-23.040-56.32-66.56-55.040-103.68 0-39.68-1.28-353.28 0-377.6 2.56-33.28 6.4-65.28 46.080-89.6 33.28-19.2 303.36-170.24 337.92-190.72 32-19.2 85.76-28.16 135.68-2.56 65.28 34.56 284.16 160 317.44 179.2 46.080 28.16 67.84 47.36 67.84 103.68 0 0 0 323.84 0 377.6-2.56 53.76-30.72 89.6-88.32 120.32zM773.12 212.48c-15.36 0-25.6 6.4-34.56 19.2l-53.76 70.4-53.76-70.4c-8.96-10.24-19.2-19.2-32-19.2-19.2 0-34.56 14.080-34.56 32 0 10.24 3.84 17.92 10.24 25.6l67.84 79.36-61.44 70.4c-8.96 10.24-12.8 19.2-12.8 28.16 0 21.76 15.36 34.56 34.56 34.56 15.36 0 25.6-6.4 34.56-19.2l48.64-65.28 49.92 65.28c8.96 10.24 19.2 19.2 32 19.2 19.2 0 34.56-14.080 34.56-32 0-10.24-3.84-17.92-10.24-25.6l-64-75.52 66.56-75.52c8.96-10.24 12.8-19.2 12.8-28.16 0-20.48-16.64-33.28-34.56-33.28zM849.92 597.76h-330.24l-92.16-396.8c-3.84-14.080-15.36-25.6-29.44-29.44-2.56 0-5.12-1.28-7.68-1.28-12.8 0-24.32 6.4-30.72 16.64l-153.6 218.88h-30.72c-20.48 0-38.4 16.64-38.4 38.4 0 20.48 16.64 38.4 38.4 38.4h51.2c12.8 0 24.32-6.4 30.72-16.64l116.48-165.12 79.36 343.040c3.84 17.92 19.2 29.44 37.12 29.44h359.68c20.48 0 38.4-16.64 38.4-38.4s-17.92-37.12-38.4-37.12z" />
<glyph unicode="&#x75;" glyph-name="unlock" data-tags="unlock" d="M769.28 897.28h-51.2c-126.72 0-226.56-103.68-226.56-230.4v-130.56h-197.12c-70.4 0-128-57.6-128-128v-281.6c0-70.4 57.6-125.44 128-125.44h435.2c70.4 0 128 55.040 128 126.72v281.6c0 57.6-35.84 106.24-92.16 121.6l-61.44 5.12h-161.28l10.24 1.28v129.28c0 92.16 72.96 168.96 165.12 168.96h51.2c92.16 0 167.68-75.52 167.68-167.68 0-16.64 14.080-32 30.72-32s30.72 14.080 30.72 30.72c0 126.72-103.68 230.4-229.12 230.4zM729.6 473.6c37.12 0 66.56-29.44 66.56-65.28v-280.32c0-37.12-29.44-65.28-66.56-65.28h-435.2c-37.12 0-66.56 29.44-66.56 65.28v280.32c0 37.12 29.44 65.28 66.56 65.28h435.2z" />
<glyph unicode="&#x76;" glyph-name="SDcard" data-tags="SD card" d="M847.36 711.68l-177.92 179.2c-3.84 3.84-8.96 5.12-12.8 5.12h-413.44c-39.68 0-71.68-32-71.68-71.68v-752.64c0-39.68 32-71.68 71.68-71.68h537.6c39.68 0 71.68 32 71.68 71.68v628.48c0 3.84-1.28 8.96-5.12 11.52zM620.8 806.4c0 10.24 7.68 17.92 17.92 17.92s17.92-7.68 17.92-17.92v-70.4c0-10.24-7.68-17.92-17.92-17.92s-17.92 7.68-17.92 17.92v70.4zM531.2 806.4c0 10.24 7.68 17.92 17.92 17.92s17.92-7.68 17.92-17.92v-70.4c0-10.24-7.68-17.92-17.92-17.92s-17.92 7.68-17.92 17.92v70.4zM441.6 806.4c0 10.24 7.68 17.92 17.92 17.92s17.92-7.68 17.92-17.92v-70.4c0-10.24-7.68-17.92-17.92-17.92s-17.92 7.68-17.92 17.92v70.4zM389.12 345.6c1.28 1.28 2.56 1.28 3.84 2.56 1.28 0 2.56 1.28 3.84 1.28s3.84 0 5.12-1.28 2.56-1.28 3.84-2.56l94.72-96v271.36c0 2.56 1.28 5.12 3.84 7.68s5.12 2.56 7.68 2.56c3.84 0 6.4-1.28 7.68-3.84 2.56-2.56 2.56-5.12 2.56-7.68v-271.36l96 96c1.28 2.56 3.84 2.56 6.4 2.56s5.12-1.28 7.68-2.56c2.56-2.56 2.56-5.12 2.56-7.68s-1.28-5.12-2.56-7.68l-120.32-121.6-122.88 122.88c-2.56 1.28-3.84 3.84-3.84 7.68s2.56 5.12 3.84 7.68zM352 806.4c0 10.24 7.68 17.92 17.92 17.92s17.92-7.68 17.92-17.92v-70.4c0-10.24-7.68-17.92-17.92-17.92s-17.92 7.68-17.92 17.92v70.4zM262.4 736v70.4c0 10.24 7.68 17.92 17.92 17.92s17.92-7.68 17.92-17.92v-70.4c0-10.24-7.68-17.92-17.92-17.92s-17.92 7.68-17.92 17.92zM733.44 126.72c0-2.56-1.28-5.12-2.56-7.68-2.56-2.56-3.84-2.56-7.68-2.56h-422.4c-2.56 0-5.12 1.28-7.68 2.56s-2.56 3.84-2.56 7.68v94.72c0 2.56 1.28 5.12 2.56 7.68s3.84 2.56 7.68 2.56c2.56 0 5.12-1.28 7.68-2.56 2.56-2.56 2.56-3.84 2.56-7.68v-84.48h400.64v84.48c0 2.56 1.28 5.12 2.56 7.68 2.56 2.56 5.12 2.56 7.68 2.56s5.12-1.28 7.68-2.56c2.56-2.56 2.56-3.84 2.56-7.68v-94.72z" />
<glyph unicode="&#x78;" glyph-name="close" data-tags="close" d="M947.2 53.76l-394.24 394.24 394.24 394.24c10.24 10.24 7.68 26.88-2.56 38.4-11.52 11.52-28.16 12.8-38.4 2.56l-394.24-394.24-394.24 394.24c-10.24 10.24-26.88 7.68-38.4-2.56-11.52-11.52-12.8-28.16-2.56-38.4l394.24-394.24-394.24-394.24c-10.24-10.24-7.68-26.88 2.56-38.4 11.52-11.52 28.16-12.8 38.4-2.56l394.24 394.24 394.24-394.24c10.24-10.24 26.88-7.68 38.4 2.56 11.52 11.52 12.8 28.16 2.56 38.4z" />
<glyph unicode="&#x7a;" glyph-name="CommercialStudies_ico" data-tags="Commercial Studies_ico" d="M878.080 753.92c-57.6 30.72-250.88 142.080-291.84 166.4s-110.080 25.6-153.6 1.28c-42.24-24.32-294.4-171.52-316.16-184.32-38.4-23.040-56.32-66.56-55.040-103.68 0-39.68-1.28-353.28 0-377.6 2.56-33.28 6.4-65.28 46.080-89.6 33.28-19.2 303.36-170.24 337.92-190.72 32-19.2 85.76-28.16 135.68-2.56 65.28 34.56 284.16 160 317.44 179.2 46.080 28.16 67.84 47.36 67.84 103.68 0 0 0 323.84 0 377.6-2.56 53.76-30.72 89.6-88.32 120.32zM480 152.32h-220.16v47.36h220.16v-47.36zM449.28 222.72h-220.16v47.36h220.16v-47.36zM430.080 291.84h-221.44v47.36h220.16v-47.36zM469.76 362.24h-220.16v47.36h220.16v-47.36zM796.16 151.040h-220.16v47.36h220.16v-47.36zM796.16 220.16h-220.16v47.36h220.16v-47.36zM796.16 289.28h-220.16v47.36h220.16v-47.36zM806.4 358.4h-220.16v47.36h220.16v-47.36zM816.64 427.52h-220.16v46.080h220.16v-46.080zM806.4 495.36h-220.16v47.36h220.16v-47.36zM796.16 564.48h-220.16v47.36h220.16v-47.36zM796.16 633.6h-220.16v47.36h220.16v-47.36zM508.16 588.8c0-84.48-69.12-153.6-153.6-153.6s-153.6 69.12-153.6 153.6 69.12 153.6 153.6 153.6 153.6-69.12 153.6-153.6zM276.48 588.8c0 1.28 0 2.56 1.28 3.84s2.56 1.28 3.84 1.28h17.92c14.080 0 25.6 2.56 33.28 6.4 8.96 5.12 14.080 11.52 16.64 20.48h-67.84c-1.28 0-2.56 0-3.84 1.28s-1.28 2.56-1.28 3.84v16.64c0 1.28 0 2.56 1.28 3.84s2.56 1.28 3.84 1.28h65.28c-6.4 11.52-20.48 17.92-42.24 17.92h-23.040c-1.28 0-2.56 0-3.84 1.28s-1.28 2.56-1.28 3.84v20.48c0 1.28 0 2.56 1.28 3.84s2.56 1.28 3.84 1.28h131.84c1.28 0 2.56 0 3.84-1.28s1.28-2.56 1.28-3.84v-16.64c0-1.28 0-2.56-1.28-3.84s-2.56-1.28-3.84-1.28h-37.12c5.12-6.4 8.96-14.080 10.24-23.040h26.88c1.28 0 2.56 0 3.84-1.28s1.28-2.56 1.28-3.84v-16.64c0-1.28 0-2.56-1.28-3.84s-2.56-1.28-3.84-1.28h-26.88c-2.56-15.36-8.96-28.16-20.48-37.12s-25.6-15.36-43.52-17.92c17.92-19.2 42.24-47.36 72.96-85.76 1.28-1.28 1.28-3.84 1.28-5.12-1.28-2.56-2.56-2.56-5.12-2.56h-30.72c-1.28 0-2.56 0-3.84 1.28-32 38.4-58.88 69.12-79.36 90.88-1.28 1.28-1.28 2.56-1.28 3.84v21.76z" />
<glyph unicode="&#x7b;" glyph-name="fitheight" data-tags="fit height" d="M311.386 79.859h401.229v-28.659h-401.229v28.659zM311.386 844.8h401.229v-28.659h-401.229v28.659zM362.56 288.397l-20.493-20.134 154.291-154.291v-1.178h1.19l14.451-14.464 14.464 14.464h1.178v1.178l154.291 154.291-20.493 20.134-133.798-133.798v586.79l133.798-133.798 20.493 20.147-169.933 169.933-169.933-169.933 20.493-20.147 133.798 133.798v-586.79z" />
<glyph unicode="&#x7d;" glyph-name="fitwidth" data-tags="fit width" d="M115.2 648.614h28.659v-401.229h-28.659v401.229zM880.141 648.614h28.659v-401.229h-28.659v401.229zM352.397 597.44l-20.134 20.493-154.291-154.291h-1.178v-1.19l-14.464-14.451 14.464-14.464v-1.178h1.178l154.291-154.291 20.134 20.493-133.798 133.798h586.79l-133.798-133.798 20.147-20.493 169.933 169.933-169.933 169.933-20.147-20.493 133.798-133.798h-586.79z" />
<glyph unicode="&#x7e;" glyph-name="backarrow" data-tags="backarrow" d="M889.6 501.76h-620.8l305.92 304.64c15.36 15.36 10.24 43.52-8.96 64-20.48 20.48-48.64 24.32-64 8.96l-400.64-407.040c-15.36-15.36-10.24-43.52 8.96-64 3.84-3.84 8.96-7.68 14.080-10.24l385.28-380.16c15.36-15.36 43.52-10.24 64 8.96 20.48 20.48 24.32 48.64 8.96 64l-313.6 308.48h619.52c24.32 0 43.52 23.040 43.52 51.2s-19.2 51.2-42.24 51.2z" />
<glyph unicode="&#xa7;" glyph-name="online" data-tags="online" d="M419.84 898.56c-248.32-48.64-409.6-291.84-358.4-542.72 51.2-248.32 294.4-412.16 542.72-360.96s412.16 291.84 360.96 542.72c-51.2 250.88-294.4 412.16-545.28 360.96v0zM268.8 757.76c-5.12-12.8-10.24-25.6-15.36-40.96-7.68-23.040-12.8-46.080-17.92-69.12-20.48 2.56-38.4 2.56-58.88 5.12 23.040 40.96 53.76 76.8 92.16 104.96v0zM140.8 583.68c28.16-5.12 56.32-7.68 84.48-10.24-2.56-46.080 0-94.72 7.68-143.36l-115.2-23.040c-5.12 61.44 2.56 120.32 23.040 176.64v0zM222.72 179.2c-40.96 43.52-71.68 94.72-89.6 153.6l115.2 23.040c12.8-48.64 28.16-94.72 48.64-135.68-25.6-12.8-51.2-25.6-74.24-40.96v0zM281.6 128c17.92 10.24 35.84 20.48 51.2 28.16 12.8-20.48 28.16-40.96 43.52-56.32 10.24-10.24 20.48-23.040 30.72-30.72-46.080 10.24-87.040 30.72-125.44 58.88v0zM550.4 71.68c-51.2 7.68-102.4 51.2-145.92 115.2 38.4 15.36 76.8 28.16 115.2 38.4l30.72-153.6zM504.32 296.96c-46.080-10.24-92.16-25.6-138.24-46.080-17.92 35.84-30.72 76.8-43.52 117.76l158.72 33.28 23.040-104.96zM468.48 478.72l-161.28-33.28c-5.12 43.52-7.68 87.040-5.12 125.44 48.64 0 97.28 5.12 145.92 12.8l20.48-104.96zM432.64 657.92c-40.96-5.12-79.36-10.24-120.32-10.24 15.36 76.8 46.080 135.68 89.6 161.28l30.72-151.040zM801.28 716.8c40.96-43.52 71.68-94.72 89.6-153.6l-115.2-23.040c-12.8 48.64-28.16 94.72-48.64 135.68 25.6 12.8 51.2 25.6 74.24 40.96v0zM742.4 768c-17.92-10.24-35.84-20.48-51.2-28.16-12.8 20.48-28.16 40.96-43.52 56.32-10.24 10.24-20.48 23.040-30.72 30.72 46.080-10.24 87.040-30.72 125.44-58.88v0zM473.6 824.32c51.2-7.68 102.4-51.2 145.92-115.2-38.4-15.36-76.8-28.16-115.2-38.4l-30.72 153.6zM519.68 599.040c46.080 10.24 92.16 25.6 138.24 46.080 17.92-35.84 30.72-76.8 43.52-117.76l-158.72-33.28-23.040 104.96zM555.52 417.28l158.72 33.28c5.12-43.52 7.68-87.040 5.12-125.44-48.64 0-97.28-5.12-145.92-12.8l-17.92 104.96zM622.080 87.040l-30.72 151.040c40.96 5.12 79.36 10.24 120.32 10.24-12.8-74.24-46.080-133.12-89.6-161.28v0zM755.2 138.24c5.12 12.8 10.24 25.6 15.36 40.96 7.68 23.040 12.8 46.080 17.92 69.12 20.48-2.56 38.4-2.56 58.88-5.12-23.040-40.96-53.76-76.8-92.16-104.96v0zM883.2 312.32c-28.16 5.12-56.32 7.68-84.48 10.24 2.56 46.080 0 94.72-7.68 143.36l115.2 23.040c5.12-61.44-2.56-120.32-23.040-176.64v0z" />
</font>
</defs>
</svg>
